<svg xmlns="http://www.w3.org/2000/svg" width="3000" height="2000" viewBox="0 0 3000 2000" version="1.1"><path d="M 1773.535 815.104 C 1770.488 817.779, 1770 818.818, 1770 822.635 C 1770 828.368, 1773.323 838.156, 1777.167 843.743 C 1781.108 849.471, 1785.519 852.242, 1789.705 851.618 C 1794.486 850.905, 1794.926 853.785, 1791.125 860.916 C 1782.263 877.544, 1783.151 894.919, 1793.967 916.500 C 1802.947 934.416, 1815.754 949.194, 1828.754 956.638 C 1831.364 958.133, 1836.956 961.760, 1841.181 964.698 C 1845.406 967.637, 1851.818 971.424, 1855.431 973.115 C 1859.044 974.805, 1862 976.339, 1862 976.523 C 1862 976.707, 1859.418 977.609, 1856.263 978.526 C 1848.284 980.845, 1845.413 982.496, 1839.297 988.281 C 1836.371 991.047, 1833.803 993.129, 1833.589 992.906 C 1833.375 992.683, 1832.073 989.717, 1830.696 986.314 C 1827.517 978.461, 1821.848 969.898, 1817.073 965.738 C 1815.029 963.957, 1811.952 960.430, 1810.234 957.901 C 1806.102 951.815, 1793.564 940.194, 1784.960 934.473 C 1772.431 926.144, 1761.671 923.023, 1745.434 923.008 C 1730.631 922.994, 1722.027 925.571, 1713.328 932.623 L 1709.157 936.005 1708.012 932.536 C 1706.575 928.182, 1699.071 920.697, 1693.384 917.944 C 1687.875 915.277, 1675.367 914.191, 1671 916 C 1664.708 918.606, 1663.319 927.824, 1667.872 936.749 C 1670.769 942.427, 1682.178 952.755, 1686.437 953.554 C 1688.343 953.912, 1691.606 955.676, 1693.686 957.475 L 1697.470 960.745 1697.485 971.640 C 1697.499 981.874, 1697.695 982.931, 1700.721 989.081 C 1705.894 999.594, 1719.221 1011.992, 1734.586 1020.585 C 1738.009 1022.499, 1741.358 1024.726, 1742.027 1025.533 C 1743.062 1026.779, 1742.662 1027.001, 1739.372 1027.008 C 1725.546 1027.035, 1713.987 1031.612, 1703.515 1041.208 C 1696.618 1047.527, 1693.062 1053.283, 1693.022 1058.191 C 1692.991 1061.987, 1691.674 1062.354, 1688.895 1059.340 C 1684.874 1054.979, 1681.147 1053.926, 1673.875 1055.098 C 1661.966 1057.015, 1653 1062.636, 1653 1068.184 C 1653 1071.961, 1658.590 1078.016, 1666.363 1082.657 C 1669.738 1084.673, 1675.886 1088.664, 1680.025 1091.526 C 1688.435 1097.342, 1694.070 1100.371, 1698.430 1101.422 C 1700.042 1101.811, 1703.710 1104.276, 1706.582 1106.901 C 1709.453 1109.525, 1714.430 1112.917, 1717.642 1114.437 C 1720.853 1115.958, 1725.231 1118.783, 1727.371 1120.716 C 1737.891 1130.220, 1761.710 1135.422, 1784.015 1133.087 C 1797.416 1131.684, 1803.419 1129.929, 1810.024 1125.484 C 1812.871 1123.568, 1815.606 1122, 1816.100 1122 C 1816.595 1122, 1817.007 1123.237, 1817.015 1124.750 C 1817.040 1129.429, 1819.880 1139.876, 1822.744 1145.825 C 1826.426 1153.473, 1839.433 1166.392, 1848.015 1170.926 C 1851.582 1172.810, 1856.764 1176.053, 1859.532 1178.131 C 1872.079 1187.556, 1884.642 1190.126, 1898.132 1186.029 C 1909 1182.727, 1914.758 1179.430, 1921.543 1172.621 C 1926.548 1167.598, 1928.321 1164.855, 1931.429 1157.334 C 1933.511 1152.293, 1936.473 1146.963, 1938.011 1145.490 C 1940.784 1142.833, 1940.971 1142.804, 1961.153 1141.952 C 1977.406 1141.266, 1983.421 1140.603, 1991.048 1138.656 C 2002.742 1135.670, 2013.257 1130.702, 2018.114 1125.868 C 2024.280 1119.732, 2032 1096.732, 2032 1084.497 C 2032 1073.240, 2026.022 1060.324, 2015.541 1048.935 C 2012.219 1045.324, 2006.931 1039.162, 2003.791 1035.241 C 1993.773 1022.730, 1980.841 1013.383, 1957.253 1001.603 C 1937.392 991.684, 1914.054 983.294, 1894.500 979.040 C 1880.666 976.032, 1881.104 976.293, 1885.215 973.500 C 1887.179 972.165, 1889.718 969.144, 1890.857 966.787 C 1892.741 962.884, 1896.402 949.154, 1897.198 943 C 1897.490 940.739, 1897.864 941.027, 1901.098 946 C 1905.557 952.857, 1911.118 957.922, 1917.543 960.980 C 1920.270 962.278, 1924.256 964.899, 1926.403 966.805 C 1934.018 973.568, 1947.645 978.606, 1967.508 982.001 C 1982.647 984.589, 1989.187 984.572, 1994.647 981.929 C 2003.163 977.806, 2006.041 968.756, 2004.174 951.966 C 2002.702 938.726, 2000.171 930.168, 1994.424 919 C 1989.954 910.312, 1986.170 905.277, 1968.326 884.278 C 1956.139 869.934, 1951.878 866.068, 1940.789 859.292 C 1932.023 853.935, 1920.401 843.180, 1913.500 834.038 C 1908.098 826.882, 1902.218 822.776, 1897.187 822.644 C 1886.927 822.375, 1881.634 831.214, 1884.533 843.771 C 1886.670 853.027, 1889.416 857.769, 1893.788 859.755 C 1895.829 860.682, 1897.630 861.509, 1897.789 861.593 C 1897.949 861.677, 1896.979 863.814, 1895.635 866.342 C 1894.291 868.870, 1892.657 874.102, 1892.005 877.969 C 1891.353 881.836, 1890.507 885, 1890.125 885 C 1889.744 885, 1888.699 883.763, 1887.803 882.250 C 1886.908 880.737, 1883.098 876.105, 1879.338 871.955 C 1875.577 867.805, 1869.171 860.509, 1865.103 855.741 C 1854.053 842.790, 1850.207 840.713, 1834.234 839.071 C 1826.769 838.303, 1823.820 837.487, 1819.055 834.867 C 1813.817 831.987, 1813.019 831.133, 1812.077 827.391 C 1809.947 818.931, 1797.084 812, 1783.514 812 C 1777.732 812, 1776.706 812.319, 1773.535 815.104 M 1778 818.260 C 1775.809 819.439, 1775.516 820.230, 1775.626 824.652 C 1775.778 830.709, 1780.209 841.233, 1783.796 844.054 C 1788.513 847.765, 1796.069 846.031, 1802.731 839.710 C 1813.192 829.784, 1805.908 819.194, 1787.482 817.540 C 1782.504 817.094, 1779.782 817.300, 1778 818.260 M 1893.315 828.016 C 1892.114 828.495, 1890.596 829.886, 1889.943 831.107 C 1888.172 834.416, 1889.276 845.669, 1891.870 850.750 C 1893.840 854.607, 1894.386 854.999, 1897.770 854.990 C 1902.249 854.979, 1911.437 850.910, 1912.348 848.534 C 1914.439 843.086, 1910.472 835.267, 1903.258 830.617 C 1898.510 827.556, 1896.070 826.918, 1893.315 828.016 M 1819.430 844.878 C 1811.674 846.888, 1801.360 854.248, 1796.920 860.941 C 1792.513 867.585, 1791.523 872.184, 1791.526 886 C 1791.529 897.865, 1791.696 898.903, 1794.826 906.431 C 1804.237 929.068, 1818.225 945.442, 1835.437 953.969 C 1854.121 963.224, 1865.982 961.186, 1872.401 947.618 C 1873.777 944.708, 1875.372 939.442, 1875.944 935.914 C 1877.289 927.623, 1877.287 899.364, 1875.941 891.065 C 1873.570 876.455, 1868.110 865.485, 1858.319 855.662 C 1849.559 846.873, 1844.684 844.743, 1832.500 844.380 C 1827 844.217, 1821.119 844.441, 1819.430 844.878 M 1908.183 861.550 C 1899.726 865.838, 1898.134 869.119, 1896.240 886.150 C 1894.367 903.005, 1895.167 912.249, 1899.938 928.842 C 1905.516 948.245, 1910.454 953.802, 1926.778 959.048 C 1939.043 962.990, 1948.571 964.831, 1960.890 965.638 C 1969.364 966.193, 1971.179 966.015, 1975.225 964.225 C 1980.574 961.858, 1982.326 959.099, 1983.907 950.546 C 1985.377 942.593, 1985.285 938.298, 1983.457 929.446 C 1979.314 909.387, 1962.043 880.978, 1946.904 869.319 C 1937.416 862.012, 1931.621 859.665, 1922 859.234 C 1914.332 858.891, 1912.979 859.118, 1908.183 861.550 M 354 867.979 C 352.681 868.812, 352.474 884.317, 352.283 996.213 C 352.163 1066.221, 352.296 1124.963, 352.578 1126.750 L 353.091 1130 1041.579 1130 L 1730.067 1130 1724.926 1125.435 C 1722.099 1122.924, 1718.597 1120.336, 1717.143 1119.685 C 1715.117 1118.776, 1557.056 1118.441, 1039.811 1118.246 L 365.121 1117.991 364.515 1113.746 C 364.181 1111.411, 364.041 1058.071, 364.204 995.213 C 364.464 894.932, 364.684 880.810, 366 879.976 C 366.944 879.378, 629.045 879.024, 1073.442 879.021 C 1461.709 879.019, 1779.701 878.676, 1780.090 878.258 C 1780.478 877.841, 1781.109 875.137, 1781.492 872.250 L 1782.188 867 1068.844 867.015 C 621.022 867.025, 354.942 867.384, 354 867.979 M 1961 867.578 C 1961 867.896, 1966.502 874.533, 1973.226 882.328 C 1979.950 890.123, 1987.769 899.574, 1990.603 903.331 C 2004.463 921.713, 2011.817 946.795, 2009.247 966.923 C 2007.996 976.728, 2005.160 981.650, 1998.523 985.540 C 1992.496 989.071, 1985.314 989.599, 1970.803 987.576 C 1950.090 984.688, 1935.802 979.960, 1927.153 973.130 C 1925.144 971.543, 1919.675 967.970, 1915 965.190 C 1910.325 962.409, 1905.233 958.934, 1903.685 957.466 C 1902.136 955.998, 1900.751 954.956, 1900.607 955.149 C 1900.046 955.900, 1894.876 970.580, 1894.693 971.941 C 1894.567 972.885, 1896.228 973.853, 1899.500 974.743 C 1933.675 984.042, 1962.188 996.292, 1985 1011.476 C 1994.308 1017.671, 1997.365 1020.608, 2018 1043.181 L 2027.500 1053.573 2027.756 975.259 L 2028.012 896.946 2030.259 896.091 C 2031.495 895.622, 2060.405 895.359, 2094.503 895.507 C 2162.254 895.802, 2163.421 895.890, 2180.047 901.958 C 2199.405 909.023, 2211.023 921.282, 2216.573 940.500 C 2218.067 945.673, 2218.365 952.629, 2218.735 990.992 C 2219.191 1038.204, 2218.562 1049.635, 2214.892 1060.766 C 2208.885 1078.987, 2192.113 1092.450, 2168.268 1098.190 C 2159.992 1100.183, 2155.998 1100.335, 2097.061 1100.900 L 2034.621 1101.500 2031.061 1111.841 C 2028.786 1118.446, 2026.306 1123.593, 2024.194 1126.091 L 2020.887 1130 2333.827 1130 L 2646.767 1130 2647.370 1127.750 C 2648.423 1123.818, 2648.087 872.360, 2647.025 869.565 L 2646.050 867 2303.525 867 C 2115.136 867, 1961 867.260, 1961 867.578 M 2281.477 896.943 C 2259.259 900.408, 2240.237 912.612, 2232.476 928.380 C 2225.867 941.808, 2225.557 944.900, 2225.527 997.500 C 2225.503 1039.337, 2225.701 1045.434, 2227.329 1053 C 2232.092 1075.132, 2247.118 1090.115, 2271.691 1097.237 C 2279.238 1099.424, 2280.878 1099.500, 2320.500 1099.500 C 2365.935 1099.500, 2366.819 1099.399, 2381.500 1092.562 C 2394.872 1086.334, 2403.643 1078.039, 2409.152 1066.412 C 2414.514 1055.096, 2415.118 1049.852, 2415.709 1009.461 C 2416.267 971.303, 2415.265 948.277, 2412.616 938.368 C 2410.341 929.861, 2405.174 921.392, 2398.383 915.040 C 2390.461 907.629, 2382.015 902.888, 2370.500 899.387 L 2361.500 896.652 2324 896.405 C 2303.375 896.270, 2284.239 896.512, 2281.477 896.943 M 2477.300 897.061 C 2469.216 898.113, 2455.455 902.894, 2448.301 907.135 C 2435.746 914.578, 2426.951 926.735, 2423.393 941.565 C 2420.016 955.639, 2419.981 1038.559, 2423.346 1054.617 C 2428.181 1077.694, 2448.347 1094.874, 2475.339 1098.912 C 2486.023 1100.510, 2524.650 1101.162, 2542 1100.037 C 2568.587 1098.314, 2581.381 1093.562, 2594.586 1080.506 C 2606.402 1068.823, 2609.582 1059.727, 2611.019 1033.500 C 2612.165 1012.578, 2612.248 984.939, 2611.170 983.240 C 2610.541 982.250, 2599.820 982.036, 2560.935 982.240 L 2511.500 982.500 2511.227 1000.927 C 2511.047 1013.034, 2511.320 1019.722, 2512.023 1020.427 C 2512.657 1021.062, 2519.913 1021.704, 2529.797 1022 L 2546.500 1022.500 2546.324 1028.781 C 2546.103 1036.677, 2543.197 1043.047, 2538.732 1045.426 C 2535.911 1046.929, 2532.875 1047.107, 2514.828 1046.824 C 2494.374 1046.503, 2494.128 1046.474, 2491.449 1044 C 2486.115 1039.073, 2486 1038.100, 2486.002 997.782 C 2486.004 946.903, 2484.337 949.663, 2515.340 949.195 C 2535.068 948.897, 2535.622 948.944, 2539.020 951.215 C 2540.934 952.494, 2543.264 955.106, 2544.197 957.020 C 2547.261 963.305, 2545.620 963.009, 2576.789 962.900 C 2592.580 962.845, 2606.625 962.479, 2608 962.085 C 2610.420 961.393, 2610.492 961.120, 2610.257 953.608 C 2609.819 939.587, 2605.182 927.002, 2597.063 917.799 C 2587.969 907.490, 2571.268 899.320, 2554.678 897.064 C 2545.717 895.845, 2486.655 895.843, 2477.300 897.061 M 1044.128 899.033 C 1022.785 901.955, 1002.021 914.997, 994.826 930 C 989.774 940.534, 988.999 945.681, 987.826 976.500 C 986.706 1005.910, 987.777 1044.633, 990.039 1056.500 C 993.584 1075.100, 1011.705 1092.604, 1033.500 1098.480 C 1042.670 1100.952, 1083.994 1102.411, 1106.580 1101.061 C 1127.351 1099.818, 1133.282 1098.555, 1144.782 1092.926 C 1156.608 1087.137, 1164.960 1079.064, 1169.960 1068.589 C 1172.084 1064.140, 1174.361 1058.250, 1175.019 1055.500 C 1175.760 1052.401, 1176.402 1037.858, 1176.708 1017.241 L 1177.201 983.981 1127.850 984.241 L 1078.500 984.500 1078.227 1002.927 C 1078.018 1016.999, 1078.254 1021.544, 1079.227 1022.161 C 1079.927 1022.606, 1087.782 1022.976, 1096.683 1022.985 C 1115.398 1023.002, 1114.751 1022.608, 1113.079 1032.991 C 1111.855 1040.592, 1109.493 1044.804, 1104.965 1047.465 C 1101.800 1049.324, 1099.812 1049.500, 1082 1049.500 C 1059.794 1049.500, 1058.106 1049.026, 1053.844 1041.590 L 1051.500 1037.500 1051.500 999.500 C 1051.500 963.298, 1051.595 961.339, 1053.500 958.105 C 1057.786 950.828, 1058.828 950.533, 1081.320 950.215 C 1104.969 949.882, 1106.601 950.342, 1111.052 958.593 L 1113.698 963.500 1144.386 963.500 C 1170.071 963.500, 1175.220 963.264, 1175.967 962.055 C 1178.050 958.682, 1174.227 938.797, 1169.764 929.792 C 1163.405 916.959, 1148.007 905.654, 1130.287 900.807 C 1123.115 898.846, 1119.657 898.657, 1086.500 898.419 C 1066.700 898.277, 1047.632 898.553, 1044.128 899.033 M 1187.682 899.651 C 1187.307 900.026, 1187 944.590, 1187 998.682 L 1187 1097.031 1215.250 1096.766 L 1243.500 1096.500 1244 1059 L 1244.500 1021.500 1276 1021.500 L 1307.500 1021.500 1308 1059 L 1308.500 1096.500 1336.750 1096.766 L 1365 1097.031 1365 998 L 1365 898.969 1336.750 899.234 L 1308.500 899.500 1308 936.500 L 1307.500 973.500 1276 973.500 L 1244.500 973.500 1244 936.500 L 1243.500 899.500 1215.932 899.235 C 1200.770 899.088, 1188.057 899.276, 1187.682 899.651 M 1377.448 900.275 C 1377.179 900.976, 1377.081 911.213, 1377.229 923.025 L 1377.500 944.500 1403 945 L 1428.500 945.500 1428.756 1021.250 L 1429.013 1097 1457.961 1097 L 1486.909 1097 1487.593 1093.357 C 1487.969 1091.354, 1487.944 1058.108, 1487.539 1019.477 C 1486.996 967.754, 1487.100 948.681, 1487.936 947.120 C 1489.045 945.047, 1489.623 945, 1514.035 945 L 1539 945 1539 922 L 1539 899 1458.469 899 C 1394.133 899, 1377.839 899.256, 1377.448 900.275 M 1548.329 900.586 C 1547.988 901.474, 1548.149 904.125, 1548.688 906.478 C 1549.226 908.830, 1563.579 937.022, 1580.583 969.127 L 1611.500 1027.500 1611.726 1061 C 1611.850 1079.425, 1611.963 1095.069, 1611.976 1095.765 C 1611.995 1096.762, 1618.201 1096.974, 1641.250 1096.765 L 1670.500 1096.500 1670.816 1094.280 C 1671.066 1092.517, 1669.931 1091.301, 1665.316 1088.388 C 1656.832 1083.032, 1651.173 1078.235, 1649.484 1074.970 C 1647.565 1071.258, 1647.592 1065.690, 1649.548 1061.907 C 1651.198 1058.716, 1658.462 1053.624, 1666.250 1050.201 L 1671 1048.112 1671 1037.907 L 1671 1027.701 1681.916 1007.101 L 1692.831 986.500 1692.286 975 C 1691.986 968.675, 1691.358 962.758, 1690.889 961.850 C 1690.420 960.943, 1687.940 959.486, 1685.377 958.613 C 1674.845 955.024, 1662.820 942.452, 1660.065 932.149 C 1659.555 930.245, 1657.772 933.356, 1650.895 948.143 C 1645.982 958.706, 1641.782 966.500, 1641.003 966.500 C 1639.745 966.500, 1622.492 930.778, 1613.067 908.660 L 1609.164 899.500 1579.056 899.235 C 1552.109 898.998, 1548.883 899.140, 1548.329 900.586 M 1674.229 899.662 C 1672.908 900.201, 1670.732 903.946, 1669.596 907.635 C 1668.958 909.705, 1669.257 909.783, 1679.277 910.154 C 1688.530 910.496, 1690.318 910.882, 1696.305 913.830 C 1700.697 915.991, 1704.436 918.795, 1707.189 921.991 L 1711.382 926.860 1715.727 924.314 C 1718.117 922.914, 1721.968 921.227, 1724.286 920.567 C 1727.944 919.524, 1728.868 918.649, 1731.290 913.933 C 1733.374 909.875, 1734.007 907.361, 1733.790 904 L 1733.500 899.500 1704.500 899.321 C 1688.550 899.223, 1674.928 899.376, 1674.229 899.662 M 385 998.500 L 385 1097 414.500 1097 L 444 1097 444 1035.500 C 444 980.480, 444.383 970.243, 446.253 975.250 C 446.510 975.938, 456.308 1003.050, 468.026 1035.500 C 479.745 1067.950, 489.763 1095.063, 490.289 1095.750 C 491.030 1096.719, 501.997 1097, 539.122 1097 L 587 1097 587 998.485 L 587 899.970 557.750 900.235 L 528.500 900.500 528.243 963.750 C 528.101 998.538, 527.651 1027, 527.243 1026.999 C 526.834 1026.998, 516.856 1000.336, 505.069 967.749 C 493.282 935.162, 482.836 906.587, 481.855 904.250 L 480.071 900 432.536 900 L 385 900 385 998.500 M 652.977 902.250 C 651.727 905.116, 597.223 1089.633, 596.380 1093.852 L 595.750 1097 625.816 1097 C 646.284 1097, 656.095 1096.655, 656.550 1095.919 C 656.918 1095.324, 658.965 1088.041, 661.101 1079.733 C 663.236 1071.425, 665.550 1064.269, 666.242 1063.829 C 666.934 1063.390, 681.311 1063.024, 698.191 1063.015 C 721.324 1063.004, 729.068 1063.301, 729.638 1064.223 C 730.054 1064.896, 732.221 1072.434, 734.454 1080.973 L 738.514 1096.500 768.757 1096.765 C 797.085 1097.013, 799.001 1096.918, 799.013 1095.265 C 799.031 1092.843, 742.906 902.809, 741.712 901.250 C 740.972 900.284, 730.898 900, 697.356 900 L 653.957 900 652.977 902.250 M 798 973.397 C 798 1055.112, 798.105 1056.670, 804.477 1069.620 C 811.285 1083.456, 827.759 1095.463, 845.713 1099.674 C 852.438 1101.251, 858.070 1101.500, 887 1101.500 C 918.910 1101.500, 920.874 1101.392, 928.377 1099.218 C 952.508 1092.228, 967.014 1078.805, 972.565 1058.328 C 975.004 1049.329, 975.708 1026.749, 975.600 961 L 975.500 900.500 946 900.500 L 916.500 900.500 916 971 C 915.513 1039.637, 915.446 1041.592, 913.465 1044.965 C 909.461 1051.780, 906.837 1052.500, 886 1052.500 C 865.163 1052.500, 862.539 1051.780, 858.535 1044.965 C 856.554 1041.592, 856.487 1039.637, 856 971 L 855.500 900.500 826.750 900.235 L 798 899.969 798 973.397 M 1672.223 921.557 C 1669.342 923.574, 1669.383 927.138, 1672.358 933.500 C 1674.847 938.822, 1682.286 946.398, 1686.652 948.058 C 1693.097 950.508, 1702 943.321, 1702 935.668 C 1702 932.058, 1701.426 930.848, 1698.250 927.758 C 1696.188 925.751, 1692.475 923.195, 1690 922.077 C 1684.480 919.583, 1675.418 919.318, 1672.223 921.557 M 1730.205 929.462 C 1715.966 932.698, 1708.890 941.189, 1703.862 961.072 C 1699.663 977.680, 1702.535 987.431, 1715.500 1000.580 C 1723.805 1009.002, 1733.357 1014.881, 1746.149 1019.442 C 1767.658 1027.111, 1792.499 1027.964, 1805.066 1021.466 C 1809.363 1019.244, 1814.905 1012.058, 1816.523 1006.612 C 1821.426 990.099, 1812.511 964.177, 1796.845 949.402 C 1789.962 942.910, 1774.360 933.198, 1767.107 930.890 C 1758.466 928.140, 1739.288 927.398, 1730.205 929.462 M 2091.241 998.250 L 2091.500 1047.500 2117.500 1047.500 C 2147.031 1047.500, 2148.368 1047.194, 2152.402 1039.500 C 2154.424 1035.645, 2154.500 1034.143, 2154.500 998 C 2154.500 956.566, 2154.589 957.198, 2147.959 951.619 L 2144.847 949 2117.914 949 L 2090.981 949 2091.241 998.250 M 2297.192 951.024 C 2295.282 952.189, 2293.072 954.829, 2291.964 957.271 C 2290.187 961.184, 2290.043 964.149, 2290.028 997 C 2290.018 1018.406, 2290.421 1033.976, 2291.044 1036.219 C 2292.590 1041.787, 2296.290 1045.584, 2301.429 1046.878 C 2307.199 1048.331, 2333.801 1048.331, 2339.571 1046.878 C 2344.802 1045.561, 2348.457 1041.729, 2350.020 1035.925 C 2350.718 1033.332, 2350.989 1019.298, 2350.796 995.721 C 2350.467 955.515, 2350.392 955.039, 2343.701 950.960 C 2340.808 949.195, 2338.576 949.007, 2320.500 949.007 C 2302.204 949.007, 2300.218 949.179, 2297.192 951.024 M 696.622 954.802 C 695.379 956.814, 677.116 1022.379, 677.587 1023.141 C 677.879 1023.613, 687.091 1024, 698.059 1024 C 713.251 1024, 718 1023.705, 718 1022.761 C 718 1020.159, 698.678 954, 697.918 954 C 697.478 954, 696.895 954.361, 696.622 954.802 M 1818 957.654 C 1818 958.522, 1820.371 961.794, 1823.269 964.924 C 1826.167 968.054, 1830.104 973.523, 1832.019 977.077 L 1835.500 983.538 1841.587 979.438 L 1847.673 975.339 1842.587 971.786 C 1829.975 962.977, 1818 956.094, 1818 957.654 M 1864.016 982.135 C 1851.777 983.953, 1841.319 990.652, 1836.696 999.636 C 1830.022 1012.604, 1822.539 1058.969, 1821.545 1093.518 C 1820.508 1129.546, 1823.691 1142.728, 1836.524 1155.561 C 1843.764 1162.801, 1855.089 1169.448, 1863 1171.101 C 1870.249 1172.615, 1879.124 1171.016, 1888.549 1166.497 C 1898.804 1161.581, 1904.793 1154.820, 1911.461 1140.628 C 1916.185 1130.574, 1917.186 1129.126, 1920.150 1128.055 C 1921.992 1127.389, 1932.275 1126.425, 1943 1125.912 C 1969.416 1124.650, 1981.163 1122.141, 1992 1115.448 C 2003.148 1108.563, 2010.381 1094.337, 2012.567 1075 C 2013.979 1062.510, 2006.519 1044.765, 1994.566 1032.181 C 1986.273 1023.449, 1977.176 1017.281, 1959 1008.066 C 1942.313 999.605, 1932.133 995.386, 1915.883 990.196 C 1892.914 982.860, 1876.405 980.294, 1864.016 982.135 M 1734.926 1032.960 C 1723.985 1033.864, 1718.868 1035.778, 1709.474 1042.481 C 1701.727 1048.010, 1699.611 1051.341, 1697.584 1061.208 C 1695.604 1070.845, 1695.604 1073.674, 1697.584 1081.356 C 1703.682 1105.007, 1718.686 1114.303, 1753 1115.690 C 1776.653 1116.646, 1790.861 1112.641, 1801.774 1101.944 C 1810.208 1093.677, 1812.508 1088.952, 1812.458 1080 C 1812.359 1062.345, 1808.236 1054.507, 1794.500 1045.865 C 1777.112 1034.925, 1758.899 1030.980, 1734.926 1032.960 M 1816.500 1041 C 1814.850 1041.420, 1810.463 1041.817, 1806.750 1041.882 C 1803.037 1041.947, 1800 1042.245, 1800 1042.544 C 1800 1042.843, 1802.417 1045.447, 1805.371 1048.332 C 1808.326 1051.216, 1811.710 1055.471, 1812.892 1057.788 C 1814.074 1060.105, 1815.482 1062, 1816.020 1062 C 1816.559 1062, 1817.338 1062.017, 1817.750 1062.037 C 1818.162 1062.058, 1819.204 1057.108, 1820.064 1051.037 C 1821.120 1043.588, 1821.283 1040.038, 1820.564 1040.118 C 1819.979 1040.183, 1818.150 1040.580, 1816.500 1041 M 1667.104 1062.013 C 1661.401 1064.064, 1658 1066.502, 1658 1068.539 C 1658 1072.338, 1676.981 1084, 1683.165 1084 C 1686.894 1084, 1689 1080.659, 1689 1074.745 C 1689 1068.910, 1687.016 1063.825, 1683.883 1061.631 C 1680.771 1059.451, 1673.785 1059.610, 1667.104 1062.013" stroke="none" fill="#231f20" fill-rule="evenodd"/><path d="M 1782.880 806.453 C 1782.661 806.672, 1780.526 807.047, 1778.136 807.286 C 1775.746 807.525, 1773.395 808.346, 1772.911 809.110 C 1772.427 809.875, 1772.024 810.078, 1772.015 809.563 C 1772.007 809.048, 1770.682 809.888, 1769.071 811.432 C 1765.756 814.608, 1763.023 823.423, 1764.803 825.203 C 1765.375 825.775, 1765.629 826.804, 1765.366 827.488 C 1764.272 830.339, 1771.842 848, 1774.158 848 C 1774.686 848, 1774.865 848.409, 1774.556 848.909 C 1773.835 850.076, 1779.871 855.198, 1781.085 854.448 C 1781.588 854.137, 1782 854.306, 1782 854.824 C 1782 855.343, 1782.900 856.002, 1784 856.290 C 1786.707 856.998, 1786.538 859.833, 1783.750 860.501 C 1782.513 860.797, 1458.625 861.144, 1064 861.270 L 346.500 861.500 346.500 999 L 346.500 1136.500 1053 1137.274 C 1441.575 1137.699, 1766.925 1138.067, 1776 1138.091 C 1785.075 1138.115, 1793.479 1137.767, 1794.675 1137.318 C 1795.871 1136.868, 1800.571 1136.725, 1805.118 1137 L 1813.386 1137.500 1815.759 1143.500 C 1817.064 1146.800, 1818.807 1150.022, 1819.633 1150.659 C 1820.458 1151.296, 1821.042 1152.130, 1820.930 1152.511 C 1820.818 1152.893, 1822.348 1155.377, 1824.331 1158.033 C 1828.530 1163.658, 1839.535 1172.778, 1846 1175.992 C 1848.475 1177.222, 1852.760 1179.953, 1855.522 1182.060 C 1869.738 1192.907, 1885.726 1195.827, 1901.640 1190.485 C 1910.860 1187.390, 1916.543 1184.548, 1919.574 1181.517 C 1920.841 1180.249, 1922.078 1179.411, 1922.321 1179.654 C 1922.564 1179.897, 1924.609 1177.937, 1926.866 1175.298 C 1931.165 1170.270, 1937.017 1159.422, 1937.275 1156.001 C 1937.358 1154.901, 1937.855 1154, 1938.379 1154 C 1938.904 1154, 1939.041 1153.707, 1938.683 1153.350 C 1938.325 1152.992, 1939.098 1151.712, 1940.399 1150.506 C 1942.423 1148.630, 1944.416 1148.206, 1954.133 1147.583 C 1960.385 1147.182, 1968.718 1146.916, 1972.651 1146.991 C 1976.591 1147.066, 1980.086 1146.670, 1980.433 1146.108 C 1980.780 1145.547, 1981.697 1145.330, 1982.470 1145.627 C 1984.362 1146.353, 1998.474 1142.626, 2004.581 1139.787 L 2009.500 1137.500 2331.500 1137 L 2653.500 1136.500 2653.754 999.554 C 2653.912 914.181, 2653.650 862.250, 2653.059 861.659 C 2652.466 861.066, 2534.192 860.589, 2337.805 860.388 C 1932.292 859.972, 1950 860.028, 1950 859.161 C 1950 858.503, 1938.184 851.143, 1936.385 850.680 C 1935.068 850.341, 1921.433 836.500, 1921.738 835.811 C 1921.905 835.433, 1921.245 834.659, 1920.271 834.092 C 1919.297 833.525, 1918.878 833.047, 1919.339 833.030 C 1920.318 832.995, 1915.894 827.522, 1914.684 827.272 C 1914.236 827.179, 1912.956 825.942, 1911.840 824.524 C 1909.617 821.697, 1902.619 817.715, 1901.624 818.710 C 1901.281 819.053, 1901 818.808, 1901 818.167 C 1901 816.093, 1892.630 816.834, 1887.907 819.325 C 1883.460 821.671, 1878.574 828.268, 1879.468 830.718 C 1879.713 831.388, 1879.482 832.202, 1878.956 832.527 C 1877.890 833.186, 1877.633 841.300, 1878.646 842.313 C 1879.001 842.668, 1879.395 844.267, 1879.521 845.866 C 1879.647 847.465, 1880.906 851.299, 1882.319 854.387 L 1884.889 860 1880.026 860 C 1875.584 860, 1874.983 859.709, 1873.083 856.634 C 1870.726 852.821, 1855.557 838, 1854.011 838 C 1853.455 838, 1852.713 838.038, 1852.362 838.085 C 1852.011 838.132, 1851.413 837.668, 1851.033 837.053 C 1850.653 836.438, 1848.802 835.777, 1846.921 835.583 C 1845.039 835.390, 1842.825 834.990, 1842 834.694 C 1841.175 834.399, 1837.575 833.876, 1834 833.533 C 1827.247 832.885, 1816.526 828.577, 1817.549 826.921 C 1817.862 826.415, 1817.615 826, 1817 826 C 1816.385 826, 1816.154 825.559, 1816.487 825.021 C 1817.734 823.003, 1809.731 812.430, 1807.842 813.598 C 1807.379 813.884, 1807 813.697, 1807 813.182 C 1807 811.458, 1796.649 807.770, 1790.660 807.360 C 1787.402 807.137, 1784.408 806.752, 1784.008 806.505 C 1783.607 806.257, 1783.100 806.234, 1782.880 806.453 M 1775.372 812.525 C 1773.652 813.409, 1771.429 815.645, 1770.432 817.496 C 1768.826 820.478, 1768.754 821.576, 1769.796 827.180 C 1771.313 835.336, 1776.097 845, 1780.555 848.914 C 1783.228 851.261, 1785.027 852, 1788.066 852 C 1790.623 852, 1792.262 852.519, 1792.615 853.440 C 1792.919 854.233, 1791.564 858.170, 1789.604 862.190 C 1779.999 881.886, 1783.662 904.202, 1800.715 929.883 C 1808.260 941.247, 1818.752 951.622, 1828.572 957.430 C 1832.932 960.009, 1839.425 964.169, 1843 966.674 C 1846.575 969.179, 1852.160 972.464, 1855.411 973.973 L 1861.322 976.717 1857.473 977.439 C 1851.673 978.527, 1842.918 983.317, 1838.314 987.922 L 1834.210 992.025 1829.578 982.502 C 1826.362 975.892, 1823.033 970.918, 1818.693 966.240 C 1815.255 962.533, 1811.113 957.700, 1809.489 955.500 C 1802.851 946.507, 1788.369 934.648, 1777.225 929.081 C 1765.673 923.310, 1751.890 921.224, 1736.291 922.888 C 1725.998 923.986, 1719.716 926.353, 1713.434 931.501 L 1709.208 934.964 1708.537 932.293 C 1707.453 927.973, 1704.233 924.233, 1697.891 919.926 C 1692.637 916.358, 1690.894 915.758, 1682.932 914.778 C 1672.139 913.449, 1668.335 914.667, 1665.657 920.310 C 1663.608 924.628, 1663.594 926.270, 1665.548 932.851 C 1667.703 940.105, 1678.191 951.276, 1685.173 953.753 C 1687.882 954.714, 1691.539 956.815, 1693.299 958.423 C 1696.485 961.332, 1696.500 961.392, 1696.560 971.423 C 1696.607 979.319, 1697.090 982.691, 1698.795 987 C 1703.110 997.904, 1715.957 1010.508, 1732.857 1020.416 C 1737.335 1023.042, 1741.251 1025.597, 1741.559 1026.095 C 1741.872 1026.603, 1739.005 1027, 1735.027 1027 C 1722.051 1027, 1710.098 1032.727, 1699.755 1043.898 C 1694.809 1049.240, 1692 1054.885, 1692 1059.482 C 1692 1060.839, 1691.099 1060.419, 1687.997 1057.616 C 1684.456 1054.417, 1683.382 1054, 1678.679 1054 C 1675.755 1054, 1670.919 1054.718, 1667.932 1055.596 C 1656.532 1058.947, 1651.168 1063.937, 1652.491 1069.961 C 1653.253 1073.430, 1658.997 1079.323, 1665 1082.794 C 1667.475 1084.226, 1674.430 1088.693, 1680.455 1092.721 C 1686.480 1096.749, 1693.626 1100.702, 1696.335 1101.507 C 1699.520 1102.453, 1702.992 1104.589, 1706.162 1107.555 C 1708.858 1110.077, 1713.637 1113.303, 1716.782 1114.724 C 1719.927 1116.146, 1724.445 1119.078, 1726.822 1121.241 C 1735.461 1129.102, 1748.259 1132.910, 1768.747 1133.715 C 1789.918 1134.548, 1804.120 1131.726, 1812.021 1125.118 L 1815.500 1122.209 1817.177 1130.650 C 1819.813 1143.918, 1823.710 1151.091, 1833.440 1160.583 C 1838.074 1165.103, 1843.932 1169.738, 1846.636 1171.023 C 1849.311 1172.294, 1854.787 1175.711, 1858.805 1178.616 C 1871.420 1187.737, 1882.757 1190.545, 1895.185 1187.628 C 1904.503 1185.441, 1913.963 1180.738, 1920.048 1175.267 C 1926.195 1169.740, 1928.726 1165.920, 1932.925 1155.835 C 1937.980 1143.693, 1937.996 1143.685, 1958.301 1142.840 C 1979.920 1141.940, 1984.452 1141.384, 1994.953 1138.341 C 2005.836 1135.187, 2016.301 1129.671, 2020.073 1125.099 C 2025.661 1118.327, 2032.978 1095.175, 2032.993 1084.218 C 2033.006 1074.322, 2025.374 1057.490, 2017.477 1050 C 2015.448 1048.075, 2011.169 1043.083, 2007.968 1038.907 C 1996.568 1024.032, 1983.456 1013.963, 1960 1002.072 C 1937.789 990.812, 1914.249 982.391, 1891.230 977.470 L 1882.961 975.702 1886.048 973.825 C 1890.699 970.996, 1894.224 962.257, 1897.640 945.085 C 1898.109 942.728, 1898.170 942.752, 1900.157 946.085 C 1903.634 951.918, 1910.242 958.040, 1916.500 961.224 C 1919.800 962.903, 1924.442 965.985, 1926.816 968.072 C 1934.671 974.981, 1950.786 980.387, 1972.879 983.525 C 1991.020 986.102, 1998.442 983.916, 2002.914 974.677 C 2006.821 966.607, 2005.485 945.252, 2000.102 929.746 C 1995.448 916.339, 1990.556 909.101, 1969.358 884.263 C 1956.941 869.714, 1951.759 864.990, 1940.915 858.338 C 1931.965 852.847, 1921.098 842.813, 1914.463 833.914 C 1909.065 826.674, 1902.068 821.999, 1896.637 822.004 C 1885.056 822.014, 1880.225 832.839, 1884.970 848.145 C 1887.425 856.061, 1889.342 858.827, 1893.612 860.611 L 1896.962 862.011 1894.996 865.783 C 1893.915 867.858, 1892.461 872.368, 1891.765 875.805 C 1891.069 879.242, 1890.098 882.092, 1889.606 882.137 C 1889.115 882.183, 1887.090 880.180, 1885.106 877.686 C 1883.123 875.192, 1876.059 866.928, 1869.409 859.321 C 1854.859 842.679, 1851.414 840.423, 1838.312 838.956 C 1826.781 837.666, 1822.454 836.409, 1817.273 832.844 C 1814.104 830.663, 1813 829.237, 1813 827.320 C 1813 823.429, 1805.732 816.763, 1798.500 814.023 C 1790.662 811.052, 1779.630 810.338, 1775.372 812.525 M 352.461 868.250 C 352.200 868.938, 352.101 928.225, 352.243 1000 L 352.500 1130.500 1042.500 1130.730 L 1732.500 1130.960 1727.500 1126.464 C 1724.750 1123.992, 1721.150 1121.188, 1719.500 1120.234 C 1716.664 1118.595, 1679.651 1118.473, 1041 1118 L 365.500 1117.500 365.500 999 L 365.500 880.500 1073.183 880.249 C 1746.085 880.011, 1780.889 879.913, 1781.349 878.249 C 1781.614 877.287, 1782.122 874.362, 1782.477 871.750 L 1783.123 867 1068.030 867 C 496.876 867, 352.841 867.252, 352.461 868.250 M 1882 867.813 C 1882 869.159, 1887.744 874.229, 1888.252 873.332 C 1888.511 872.874, 1889.019 871.263, 1889.381 869.750 C 1890.015 867.097, 1889.896 867, 1886.019 867 C 1883.809 867, 1882 867.366, 1882 867.813 M 1960 867.513 C 1960 867.795, 1964.838 873.659, 1970.750 880.544 C 1988.129 900.782, 1994.862 909.928, 1999.608 919.743 C 2009.789 940.794, 2012.174 967.355, 2004.875 978.375 C 1998.720 987.667, 1989.418 989.697, 1967.743 986.479 C 1949.437 983.762, 1936.980 979.354, 1927 972.065 C 1923.425 969.453, 1917.816 965.807, 1914.536 963.963 C 1911.256 962.118, 1906.857 959.059, 1904.760 957.164 C 1902.663 955.270, 1900.695 953.972, 1900.386 954.281 C 1900.077 954.589, 1898.575 958.365, 1897.046 962.671 C 1895.518 966.977, 1893.965 971.207, 1893.595 972.071 C 1893.041 973.368, 1895.723 974.456, 1908.931 978.295 C 1928.593 984.011, 1944.602 990.246, 1961 998.576 C 1986.395 1011.477, 1993.882 1017.482, 2018 1044.291 L 2028.500 1055.963 2029 976.232 L 2029.500 896.500 2094.500 896.531 L 2159.500 896.562 2169.304 899.237 C 2183.586 903.134, 2192.820 907.922, 2201.081 915.715 C 2208.535 922.747, 2213.542 931.422, 2215.953 941.484 C 2220.225 959.317, 2219.893 1039.066, 2215.473 1056.387 C 2210.899 1074.314, 2197.198 1087.838, 2176.254 1095.100 C 2163.634 1099.476, 2154.968 1099.988, 2093.372 1099.994 C 2048.067 1099.999, 2035.028 1100.276, 2034.261 1101.250 C 2033.720 1101.938, 2032.279 1105.875, 2031.058 1110 C 2028.653 1118.127, 2025.426 1124.399, 2022.104 1127.406 C 2020.947 1128.453, 2020 1129.691, 2020 1130.157 C 2020 1130.622, 2161.188 1130.890, 2333.750 1130.752 L 2647.500 1130.500 2647.754 998.750 L 2648.007 867 2304.004 867 C 2114.802 867, 1960 867.231, 1960 867.513 M 1048.500 898.005 C 1023.840 900.218, 1003.033 912.216, 994.591 929.090 C 987.823 942.619, 987.500 945.803, 987.500 999 C 987.500 1048.794, 987.878 1054.254, 992.112 1065.569 C 997.967 1081.219, 1015.560 1094.938, 1035.898 1099.715 C 1042.503 1101.266, 1048.549 1101.500, 1082 1101.500 C 1125.754 1101.500, 1129.882 1100.999, 1144.774 1093.877 C 1160.960 1086.136, 1171.777 1072.659, 1175.576 1055.500 C 1177.813 1045.396, 1178.918 985.195, 1176.891 983.911 C 1176.126 983.427, 1153.843 983.024, 1127.372 983.015 C 1087.655 983.003, 1079.045 983.241, 1078.099 984.380 C 1077.307 985.335, 1077.038 991.428, 1077.227 1004.130 L 1077.500 1022.500 1093.939 1023.215 C 1102.980 1023.609, 1111.031 1024.182, 1111.829 1024.488 C 1112.974 1024.927, 1113.149 1026.303, 1112.656 1031.016 C 1111.824 1038.981, 1109.920 1043.208, 1105.863 1046.101 C 1102.672 1048.378, 1101.608 1048.516, 1085.015 1048.817 C 1064.449 1049.190, 1062.040 1048.852, 1057.612 1044.965 C 1052.152 1040.171, 1051.858 1037.590, 1052.196 997.500 C 1052.532 957.751, 1052.562 957.553, 1058.898 953.287 C 1062.156 951.094, 1063.118 951, 1082.244 951 C 1105.221 951, 1106.205 951.285, 1110.509 959.193 L 1113.140 964.028 1144.820 963.764 L 1176.500 963.500 1176.804 958.198 C 1177.243 950.539, 1174.610 938.071, 1170.905 930.264 C 1164.582 916.939, 1148.805 904.998, 1131.500 900.439 C 1120.238 897.473, 1070.642 896.018, 1048.500 898.005 M 2279.375 898.055 C 2271.457 899.434, 2257.657 904.773, 2251.270 908.929 C 2239.672 916.475, 2232.428 926.896, 2228.284 942 C 2226.685 947.827, 2226.500 953.576, 2226.500 997.500 C 2226.500 1051.718, 2226.808 1055.031, 2233.019 1067.675 C 2238.994 1079.841, 2255.598 1092.279, 2271.500 1096.503 C 2283.223 1099.617, 2327.947 1101.009, 2352.061 1099.010 C 2372.497 1097.316, 2386.960 1091.285, 2398.580 1079.612 C 2406.314 1071.842, 2409.886 1065.463, 2412.748 1054.312 C 2414.298 1048.275, 2414.495 1041.925, 2414.477 998.500 C 2414.456 944.786, 2414.163 941.480, 2408.352 929.332 C 2402.404 916.899, 2386.786 904.955, 2369.772 899.828 C 2362.895 897.756, 2360.380 897.624, 2323.500 897.399 C 2302.050 897.269, 2282.194 897.564, 2279.375 898.055 M 2477.500 897.683 C 2469.986 898.801, 2461.787 901.477, 2453.434 905.538 C 2437.920 913.081, 2428.799 924.086, 2424.456 940.500 C 2422.396 948.282, 2420.643 993.989, 2421.482 1018 C 2422.912 1058.921, 2425.173 1067.282, 2438.296 1080.178 C 2446.555 1088.295, 2459.492 1095.089, 2471.157 1097.438 C 2488.876 1101.005, 2550.420 1100.407, 2565 1096.527 C 2581.468 1092.144, 2597.106 1080.410, 2603.301 1067.788 C 2609.264 1055.639, 2610.285 1047.834, 2610.400 1013.500 L 2610.500 983.500 2561.228 983.241 L 2511.956 982.981 2512.228 1001.741 L 2512.500 1020.500 2529.147 1020.774 C 2542.351 1020.991, 2546.048 1021.352, 2547.018 1022.522 C 2548.740 1024.596, 2546.805 1036.961, 2544.066 1041.393 C 2540.411 1047.308, 2537.535 1048, 2516.619 1048 C 2495.107 1048, 2491.496 1047.143, 2487.769 1041.149 C 2485.510 1037.516, 2485.500 1037.330, 2485.500 997.823 C 2485.500 959.310, 2485.560 958.066, 2487.562 955.385 C 2492.471 948.810, 2493.464 948.531, 2513.220 948.167 C 2523.164 947.984, 2532.794 948.114, 2534.621 948.457 C 2538.871 949.254, 2543.643 953.274, 2545.814 957.886 L 2547.515 961.500 2576.507 961.780 C 2592.453 961.934, 2606.578 961.797, 2607.895 961.475 C 2610.240 960.901, 2610.277 960.721, 2609.709 952.695 C 2607.787 925.532, 2592.143 907.307, 2564 899.443 C 2558.300 897.851, 2552.759 897.603, 2519 897.432 C 2497.825 897.325, 2479.150 897.438, 2477.500 897.683 M 1187.200 899.200 C 1186.283 900.117, 1186.004 923.394, 1186.015 997.950 C 1186.024 1051.602, 1186.388 1096.062, 1186.824 1096.749 C 1187.426 1097.698, 1194.232 1098.008, 1215.046 1098.035 C 1239.645 1098.067, 1242.602 1097.897, 1243.708 1096.384 C 1244.659 1095.084, 1244.797 1086.660, 1244.313 1059.578 C 1243.744 1027.759, 1243.840 1024.303, 1245.334 1022.809 C 1246.792 1021.351, 1250.329 1021.163, 1275.742 1021.191 C 1291.559 1021.208, 1305.287 1021.638, 1306.250 1022.146 C 1307.869 1023.001, 1308 1025.874, 1308 1060.551 L 1308 1098.031 1336.750 1097.765 L 1365.500 1097.500 1365.500 998 L 1365.500 898.500 1337 898.500 L 1308.500 898.500 1308 935.500 L 1307.500 972.500 1276.273 972.764 L 1245.045 973.028 1244.377 970.366 C 1244.010 968.902, 1243.948 953.040, 1244.241 935.118 C 1244.533 917.196, 1244.385 901.513, 1243.911 900.266 L 1243.050 898 1215.725 898 C 1195.806 898, 1188.075 898.325, 1187.200 899.200 M 1377.200 899.200 C 1375.500 900.900, 1375.500 943.100, 1377.200 944.800 C 1378.069 945.669, 1385.244 946, 1403.200 946 L 1428 946 1428.015 1020.750 C 1428.024 1061.862, 1428.392 1096.070, 1428.834 1096.766 C 1429.458 1097.749, 1436.089 1097.972, 1458.569 1097.766 L 1487.500 1097.500 1488 1022 L 1488.500 946.500 1514 946 L 1539.500 945.500 1539.769 922.571 C 1539.977 904.895, 1539.748 899.457, 1538.769 898.836 C 1538.071 898.393, 1501.703 898.024, 1457.950 898.015 C 1397.394 898.004, 1378.113 898.287, 1377.200 899.200 M 1547.444 900.366 C 1547.118 901.667, 1547.375 904.704, 1548.016 907.116 C 1548.657 909.527, 1561.912 935.575, 1577.471 965 C 1593.030 994.425, 1606.827 1020.525, 1608.130 1023 C 1610.460 1027.425, 1610.508 1028.086, 1611 1062.500 L 1611.500 1097.500 1641.131 1097.765 L 1670.761 1098.029 1671.224 1095.610 C 1671.881 1092.174, 1670.707 1090.604, 1664.747 1086.954 C 1655.925 1081.549, 1651.797 1077.794, 1649.859 1073.414 C 1646.196 1065.134, 1650.286 1058.824, 1663.402 1052.515 L 1670.819 1048.947 1671.160 1038.724 L 1671.500 1028.500 1682.405 1008.013 C 1688.584 996.406, 1693.269 986.437, 1693.214 985.013 C 1693.161 983.631, 1693.050 978.225, 1692.968 973 C 1692.794 961.940, 1691.845 959.869, 1686.176 958.171 C 1681.349 956.725, 1671.597 949.528, 1667.663 944.509 C 1666.103 942.518, 1663.551 938.102, 1661.992 934.695 L 1659.158 928.500 1655.677 936 C 1653.763 940.125, 1649.917 948.450, 1647.132 954.500 C 1644.346 960.550, 1641.603 965.500, 1641.034 965.500 C 1640.466 965.500, 1637.497 960.100, 1634.437 953.500 C 1628.756 941.249, 1615.709 912.708, 1611.466 903.250 L 1609.111 898 1578.574 898 L 1548.038 898 1547.444 900.366 M 1675 898.870 C 1673.358 899.311, 1671.742 901.078, 1670.291 904.020 C 1666.940 910.817, 1667.142 911.251, 1673.292 910.483 C 1684.818 909.043, 1700.001 914.531, 1706.716 922.565 C 1708.755 925.004, 1710.873 927, 1711.422 927 C 1711.972 927, 1715.139 925.684, 1718.460 924.077 C 1721.782 922.469, 1725.719 920.687, 1727.209 920.117 C 1730.592 918.822, 1733.912 912.537, 1734.692 905.949 C 1735.668 897.715, 1736.688 897.986, 1705.128 898.100 C 1689.932 898.155, 1676.375 898.501, 1675 898.870 M 384.494 901.250 C 384.195 902.487, 384.074 947.150, 384.225 1000.500 L 384.500 1097.500 413.931 1097.765 C 436.811 1097.972, 443.542 1097.749, 444.166 1096.765 C 444.608 1096.069, 444.991 1068.275, 445.018 1035 L 445.067 974.500 466.958 1034.806 C 478.998 1067.975, 489.391 1095.766, 490.055 1096.566 C 491.084 1097.807, 498.293 1097.981, 539.380 1097.760 L 587.500 1097.500 587.500 998.500 L 587.500 899.500 558.069 899.235 C 535.189 899.028, 528.458 899.251, 527.834 900.235 C 527.392 900.931, 527.001 929.400, 526.965 963.500 L 526.899 1025.500 504.385 963.525 C 492.002 929.439, 481.395 900.976, 480.813 900.275 C 479.983 899.275, 469.556 899, 432.397 899 L 385.038 899 384.494 901.250 M 653.218 900.250 C 652.654 900.938, 640.484 941.100, 626.175 989.500 C 593.979 1098.398, 594.732 1095.758, 595.492 1096.986 C 596.480 1098.585, 655.464 1098.351, 656.799 1096.743 C 657.373 1096.051, 659.031 1090.764, 660.484 1084.993 C 661.937 1079.222, 663.806 1072.131, 664.638 1069.236 L 666.150 1063.972 697.774 1064.236 L 729.398 1064.500 733.449 1080 C 735.677 1088.525, 737.864 1096.063, 738.309 1096.750 C 738.927 1097.704, 746.211 1098, 769.090 1098 C 795.216 1098, 799.139 1097.801, 799.656 1096.453 C 800.321 1094.721, 744.571 904.782, 742.362 901.250 L 740.954 899 697.599 899 C 664.130 899, 654.011 899.285, 653.218 900.250 M 797.427 900.329 C 797.140 901.077, 797.056 935.621, 797.240 977.094 C 797.609 1060.156, 797.377 1056.964, 804.013 1070.606 C 809.164 1081.195, 822.064 1092.261, 834.820 1097.034 C 847.859 1101.912, 853.451 1102.486, 887.500 1102.434 C 917.313 1102.390, 920.047 1102.236, 927.500 1100.183 C 951.153 1093.669, 966.839 1080.144, 972.480 1061.401 C 975.674 1050.789, 976.100 1038.917, 975.799 969 L 975.500 899.500 946 899.500 L 916.500 899.500 916 969 C 915.533 1033.980, 915.379 1038.777, 913.636 1042.763 C 912.611 1045.107, 910.361 1048.032, 908.636 1049.263 C 905.647 1051.395, 904.588 1051.500, 886 1051.500 C 867.430 1051.500, 866.351 1051.394, 863.373 1049.270 C 861.654 1048.043, 859.404 1045.343, 858.373 1043.270 C 856.611 1039.724, 856.470 1035.340, 856 969.500 L 855.500 899.500 826.725 899.235 C 803.205 899.018, 797.854 899.218, 797.427 900.329 M 2090.458 949.250 C 2090.195 949.938, 2090.096 972.325, 2090.240 999 L 2090.500 1047.500 2117.500 1047.755 C 2143.105 1047.997, 2144.671 1047.906, 2147.808 1045.985 C 2149.712 1044.819, 2151.931 1042.163, 2153.036 1039.729 C 2154.819 1035.802, 2154.958 1032.815, 2154.978 997.907 C 2155.009 944.875, 2157.372 948, 2117.234 948 C 2097.119 948, 2090.825 948.294, 2090.458 949.250 M 2299.643 948.999 C 2296.110 950.094, 2293.301 952.573, 2291.148 956.498 C 2289.698 959.139, 2289.500 964.126, 2289.500 998 C 2289.500 1035.036, 2289.578 1036.633, 2291.554 1039.997 C 2292.684 1041.920, 2295.113 1044.507, 2296.952 1045.747 C 2300.147 1047.900, 2301.194 1048, 2320.500 1048 C 2339.820 1048, 2340.853 1047.901, 2344.102 1045.737 C 2345.971 1044.492, 2348.400 1041.680, 2349.500 1039.487 C 2351.394 1035.712, 2351.500 1033.504, 2351.500 998 C 2351.500 962.478, 2351.394 960.292, 2349.500 956.565 C 2345.595 948.881, 2344.418 948.525, 2322.180 948.307 C 2311.356 948.201, 2301.214 948.512, 2299.643 948.999 M 1817 957.116 C 1817 958.284, 1819.367 961.790, 1822.283 964.939 C 1825.188 968.077, 1829.263 973.875, 1831.337 977.822 C 1833.412 981.770, 1835.465 985, 1835.900 985 C 1836.334 985, 1837.547 984.053, 1838.594 982.896 C 1839.641 981.739, 1842.461 979.642, 1844.861 978.235 L 1849.225 975.678 1846.862 973.821 C 1843.967 971.546, 1818.131 955, 1817.473 955 C 1817.213 955, 1817 955.952, 1817 957.116" stroke="none" fill="#ffffff" fill-rule="evenodd"/><path d="M 1776.685 819.458 C 1774.521 821.622, 1774.564 823.378, 1776.976 831.186 C 1779.583 839.629, 1784.902 846.004, 1789.328 845.991 C 1793.692 845.978, 1802.343 840.799, 1804.893 836.673 C 1808.908 830.177, 1806.846 824.594, 1798.887 820.414 C 1793.923 817.807, 1778.979 817.163, 1776.685 819.458 M 1891.073 830.635 C 1888.561 833.828, 1888.412 838.639, 1890.597 846.068 C 1892.466 852.424, 1894.459 855, 1897.506 855 C 1900.880 855, 1906.155 852.980, 1909.750 850.311 C 1914.848 846.526, 1914.093 842.014, 1907.132 834.668 C 1900.381 827.543, 1894.639 826.101, 1891.073 830.635 M 1821.132 845.078 C 1811.391 846.992, 1799.794 855.526, 1795.549 863.903 C 1791.159 872.567, 1789.727 887.655, 1792.362 897.500 C 1795.711 910.015, 1805.611 928.029, 1814.621 938.003 C 1827.951 952.757, 1851.066 962.529, 1861.962 958.016 C 1867.107 955.885, 1871.703 949.778, 1874.170 941.794 C 1876.207 935.201, 1876.423 932.482, 1876.414 913.500 C 1876.402 889.585, 1875.373 883.472, 1869.279 871.127 C 1865.113 862.685, 1853.888 850.466, 1847.663 847.594 C 1840.919 844.482, 1829.615 843.410, 1821.132 845.078 M 1911.199 860.261 C 1909.384 860.843, 1906.082 862.934, 1903.863 864.909 C 1898.476 869.702, 1897.009 875.451, 1896.290 894.581 C 1895.666 911.204, 1896.523 917.058, 1902.185 934.854 C 1904.770 942.982, 1905.839 944.899, 1910.330 949.477 C 1916.015 955.270, 1920.601 957.375, 1937 961.718 C 1944.194 963.622, 1949.954 964.357, 1960.725 964.742 L 1974.950 965.250 1978.385 961.815 C 1982.733 957.467, 1984.162 952.190, 1984.130 940.605 C 1984.090 926.483, 1978.155 910.249, 1966.487 892.348 C 1950.017 867.081, 1928.641 854.675, 1911.199 860.261 M 1673.693 920.642 C 1670.941 921.444, 1669.993 925.135, 1671.258 930.121 C 1672.088 933.391, 1674.041 936.209, 1678.973 941.250 C 1684.613 947.016, 1686.081 947.999, 1689.038 947.996 C 1698.998 947.986, 1705.545 936.366, 1699.583 929.281 C 1694.301 923.003, 1680.915 918.537, 1673.693 920.642 M 1734 929.088 C 1726.002 930.284, 1717.979 934.054, 1714.386 938.301 C 1707.877 945.998, 1702.557 962.106, 1702.597 974 C 1702.617 980.093, 1703.112 982.449, 1705.232 986.561 C 1715.070 1005.638, 1738.975 1020.182, 1767.577 1024.493 C 1780.538 1026.446, 1786.965 1026.366, 1795.500 1024.143 C 1805.447 1021.552, 1808.553 1019.645, 1812.475 1013.719 C 1817.168 1006.629, 1818.469 1000.025, 1817.130 990.081 C 1815.346 976.820, 1809.719 964.681, 1799.892 952.892 C 1796.406 948.709, 1781.028 937.549, 1773.456 933.706 C 1764.835 929.332, 1746.619 927.199, 1734 929.088 M 1862.500 982.604 C 1855.706 984.265, 1850.064 986.548, 1846.217 989.194 C 1835.807 996.357, 1831.711 1008.834, 1825.065 1053.621 C 1822.549 1070.579, 1822.081 1076.953, 1821.880 1097 C 1821.518 1133.160, 1824.297 1143.436, 1837.906 1156.271 C 1854.850 1172.250, 1870.971 1175.002, 1890.454 1165.242 C 1898.883 1161.018, 1904.872 1153.854, 1911.024 1140.633 L 1916.476 1128.917 1921.488 1127.570 C 1924.245 1126.829, 1936.024 1125.751, 1947.665 1125.174 C 1967.199 1124.206, 1969.550 1123.885, 1978.165 1121.002 C 1993.347 1115.922, 2000.814 1110.017, 2005.782 1099.164 C 2012.079 1085.410, 2013.713 1069.090, 2009.932 1057.718 C 2005.390 1044.058, 1994.432 1030.026, 1981.499 1021.309 C 1959.772 1006.664, 1928.413 993.177, 1898 985.397 C 1887.874 982.807, 1868.053 981.248, 1862.500 982.604 M 1726.500 1034.386 C 1715.188 1037.137, 1701.250 1047.842, 1699.011 1055.500 C 1698.367 1057.700, 1697.603 1063.775, 1697.312 1069 C 1696.863 1077.056, 1697.114 1079.480, 1698.968 1084.946 C 1704.044 1099.916, 1713.245 1108.443, 1728.560 1112.370 C 1737.744 1114.724, 1755.604 1116.312, 1764.928 1115.602 C 1781.929 1114.309, 1791.583 1110.777, 1800.821 1102.471 C 1811.087 1093.241, 1813.956 1085.092, 1811.631 1071.771 C 1809.181 1057.731, 1805.849 1053.093, 1792.341 1044.915 C 1782.948 1039.229, 1778.792 1037.594, 1767 1034.950 C 1757.072 1032.723, 1734.623 1032.411, 1726.500 1034.386 M 1669 1061.876 C 1660.880 1064.487, 1659 1065.732, 1659 1068.503 C 1659 1071.631, 1667.298 1078.042, 1675.836 1081.512 C 1683.498 1084.625, 1684.373 1084.613, 1686.927 1081.365 C 1690.791 1076.453, 1689.009 1066.512, 1683.486 1062.168 C 1680.182 1059.569, 1676.411 1059.493, 1669 1061.876" stroke="none" fill="#fd0000" fill-rule="evenodd"/><path d="M 1773.535 815.104 C 1770.488 817.779, 1770 818.818, 1770 822.635 C 1770 828.368, 1773.323 838.156, 1777.167 843.743 C 1781.108 849.471, 1785.519 852.242, 1789.705 851.618 C 1794.486 850.905, 1794.926 853.785, 1791.125 860.916 C 1782.263 877.544, 1783.151 894.919, 1793.967 916.500 C 1802.947 934.416, 1815.754 949.194, 1828.754 956.638 C 1831.364 958.133, 1836.956 961.760, 1841.181 964.698 C 1845.406 967.637, 1851.818 971.424, 1855.431 973.115 C 1859.044 974.805, 1862 976.339, 1862 976.523 C 1862 976.707, 1859.418 977.609, 1856.263 978.526 C 1848.284 980.845, 1845.413 982.496, 1839.297 988.281 C 1836.371 991.047, 1833.803 993.129, 1833.589 992.906 C 1833.375 992.683, 1832.073 989.717, 1830.696 986.314 C 1827.517 978.461, 1821.848 969.898, 1817.073 965.738 C 1815.029 963.957, 1811.952 960.430, 1810.234 957.901 C 1806.102 951.815, 1793.564 940.194, 1784.960 934.473 C 1772.431 926.144, 1761.671 923.023, 1745.434 923.008 C 1730.631 922.994, 1722.027 925.571, 1713.328 932.623 L 1709.157 936.005 1708.012 932.536 C 1706.575 928.182, 1699.071 920.697, 1693.384 917.944 C 1687.875 915.277, 1675.367 914.191, 1671 916 C 1664.708 918.606, 1663.319 927.824, 1667.872 936.749 C 1670.769 942.427, 1682.178 952.755, 1686.437 953.554 C 1688.343 953.912, 1691.606 955.676, 1693.686 957.475 L 1697.470 960.745 1697.485 971.640 C 1697.499 981.874, 1697.695 982.931, 1700.721 989.081 C 1705.894 999.594, 1719.221 1011.992, 1734.586 1020.585 C 1738.009 1022.499, 1741.358 1024.726, 1742.027 1025.533 C 1743.062 1026.779, 1742.662 1027.001, 1739.372 1027.008 C 1725.546 1027.035, 1713.987 1031.612, 1703.515 1041.208 C 1696.618 1047.527, 1693.062 1053.283, 1693.022 1058.191 C 1692.991 1061.987, 1691.674 1062.354, 1688.895 1059.340 C 1684.874 1054.979, 1681.147 1053.926, 1673.875 1055.098 C 1661.966 1057.015, 1653 1062.636, 1653 1068.184 C 1653 1071.961, 1658.590 1078.016, 1666.363 1082.657 C 1669.738 1084.673, 1675.886 1088.664, 1680.025 1091.526 C 1688.435 1097.342, 1694.070 1100.371, 1698.430 1101.422 C 1700.042 1101.811, 1703.710 1104.276, 1706.582 1106.901 C 1709.453 1109.525, 1714.430 1112.917, 1717.642 1114.437 C 1720.853 1115.958, 1725.231 1118.783, 1727.371 1120.716 C 1737.891 1130.220, 1761.710 1135.422, 1784.015 1133.087 C 1797.416 1131.684, 1803.419 1129.929, 1810.024 1125.484 C 1812.871 1123.568, 1815.606 1122, 1816.100 1122 C 1816.595 1122, 1817.007 1123.237, 1817.015 1124.750 C 1817.040 1129.429, 1819.880 1139.876, 1822.744 1145.825 C 1826.426 1153.473, 1839.433 1166.392, 1848.015 1170.926 C 1851.582 1172.810, 1856.764 1176.053, 1859.532 1178.131 C 1872.079 1187.556, 1884.642 1190.126, 1898.132 1186.029 C 1909 1182.727, 1914.758 1179.430, 1921.543 1172.621 C 1926.548 1167.598, 1928.321 1164.855, 1931.429 1157.334 C 1933.511 1152.293, 1936.473 1146.963, 1938.011 1145.490 C 1940.784 1142.833, 1940.971 1142.804, 1961.153 1141.952 C 1977.406 1141.266, 1983.421 1140.603, 1991.048 1138.656 C 2002.742 1135.670, 2013.257 1130.702, 2018.114 1125.868 C 2024.280 1119.732, 2032 1096.732, 2032 1084.497 C 2032 1073.240, 2026.022 1060.324, 2015.541 1048.935 C 2012.219 1045.324, 2006.931 1039.162, 2003.791 1035.241 C 1993.773 1022.730, 1980.841 1013.383, 1957.253 1001.603 C 1937.392 991.684, 1914.054 983.294, 1894.500 979.040 C 1880.666 976.032, 1881.104 976.293, 1885.215 973.500 C 1887.179 972.165, 1889.718 969.144, 1890.857 966.787 C 1892.741 962.884, 1896.402 949.154, 1897.198 943 C 1897.490 940.739, 1897.864 941.027, 1901.098 946 C 1905.557 952.857, 1911.118 957.922, 1917.543 960.980 C 1920.270 962.278, 1924.256 964.899, 1926.403 966.805 C 1934.018 973.568, 1947.645 978.606, 1967.508 982.001 C 1982.647 984.589, 1989.187 984.572, 1994.647 981.929 C 2003.163 977.806, 2006.041 968.756, 2004.174 951.966 C 2002.702 938.726, 2000.171 930.168, 1994.424 919 C 1989.954 910.312, 1986.170 905.277, 1968.326 884.278 C 1956.139 869.934, 1951.878 866.068, 1940.789 859.292 C 1932.023 853.935, 1920.401 843.180, 1913.500 834.038 C 1908.098 826.882, 1902.218 822.776, 1897.187 822.644 C 1886.927 822.375, 1881.634 831.214, 1884.533 843.771 C 1886.670 853.027, 1889.416 857.769, 1893.788 859.755 C 1895.829 860.682, 1897.630 861.509, 1897.789 861.593 C 1897.949 861.677, 1896.979 863.814, 1895.635 866.342 C 1894.291 868.870, 1892.657 874.102, 1892.005 877.969 C 1891.353 881.836, 1890.507 885, 1890.125 885 C 1889.744 885, 1888.699 883.763, 1887.803 882.250 C 1886.908 880.737, 1883.098 876.105, 1879.338 871.955 C 1875.577 867.805, 1869.171 860.509, 1865.103 855.741 C 1854.053 842.790, 1850.207 840.713, 1834.234 839.071 C 1826.769 838.303, 1823.820 837.487, 1819.055 834.867 C 1813.817 831.987, 1813.019 831.133, 1812.077 827.391 C 1809.947 818.931, 1797.084 812, 1783.514 812 C 1777.732 812, 1776.706 812.319, 1773.535 815.104 M 1778 818.260 C 1775.809 819.439, 1775.516 820.230, 1775.626 824.652 C 1775.778 830.709, 1780.209 841.233, 1783.796 844.054 C 1788.513 847.765, 1796.069 846.031, 1802.731 839.710 C 1813.192 829.784, 1805.908 819.194, 1787.482 817.540 C 1782.504 817.094, 1779.782 817.300, 1778 818.260 M 1893.315 828.016 C 1892.114 828.495, 1890.596 829.886, 1889.943 831.107 C 1888.172 834.416, 1889.276 845.669, 1891.870 850.750 C 1893.840 854.607, 1894.386 854.999, 1897.770 854.990 C 1902.249 854.979, 1911.437 850.910, 1912.348 848.534 C 1914.439 843.086, 1910.472 835.267, 1903.258 830.617 C 1898.510 827.556, 1896.070 826.918, 1893.315 828.016 M 1819.430 844.878 C 1811.674 846.888, 1801.360 854.248, 1796.920 860.941 C 1792.513 867.585, 1791.523 872.184, 1791.526 886 C 1791.529 897.865, 1791.696 898.903, 1794.826 906.431 C 1804.237 929.068, 1818.225 945.442, 1835.437 953.969 C 1854.121 963.224, 1865.982 961.186, 1872.401 947.618 C 1873.777 944.708, 1875.372 939.442, 1875.944 935.914 C 1877.289 927.623, 1877.287 899.364, 1875.941 891.065 C 1873.570 876.455, 1868.110 865.485, 1858.319 855.662 C 1849.559 846.873, 1844.684 844.743, 1832.500 844.380 C 1827 844.217, 1821.119 844.441, 1819.430 844.878 M 1908.183 861.550 C 1899.726 865.838, 1898.134 869.119, 1896.240 886.150 C 1894.367 903.005, 1895.167 912.249, 1899.938 928.842 C 1905.516 948.245, 1910.454 953.802, 1926.778 959.048 C 1939.043 962.990, 1948.571 964.831, 1960.890 965.638 C 1969.364 966.193, 1971.179 966.015, 1975.225 964.225 C 1980.574 961.858, 1982.326 959.099, 1983.907 950.546 C 1985.377 942.593, 1985.285 938.298, 1983.457 929.446 C 1979.314 909.387, 1962.043 880.978, 1946.904 869.319 C 1937.416 862.012, 1931.621 859.665, 1922 859.234 C 1914.332 858.891, 1912.979 859.118, 1908.183 861.550 M 354 867.979 C 352.681 868.812, 352.474 884.317, 352.283 996.213 C 352.163 1066.221, 352.296 1124.963, 352.578 1126.750 L 353.091 1130 1041.579 1130 L 1730.067 1130 1724.926 1125.435 C 1722.099 1122.924, 1718.597 1120.336, 1717.143 1119.685 C 1715.117 1118.776, 1557.056 1118.441, 1039.811 1118.246 L 365.121 1117.991 364.515 1113.746 C 364.181 1111.411, 364.041 1058.071, 364.204 995.213 C 364.464 894.932, 364.684 880.810, 366 879.976 C 366.944 879.378, 629.045 879.024, 1073.442 879.021 C 1461.709 879.019, 1779.701 878.676, 1780.090 878.258 C 1780.478 877.841, 1781.109 875.137, 1781.492 872.250 L 1782.188 867 1068.844 867.015 C 621.022 867.025, 354.942 867.384, 354 867.979 M 1961 867.578 C 1961 867.896, 1966.502 874.533, 1973.226 882.328 C 1979.950 890.123, 1987.769 899.574, 1990.603 903.331 C 2004.463 921.713, 2011.817 946.795, 2009.247 966.923 C 2007.996 976.728, 2005.160 981.650, 1998.523 985.540 C 1992.496 989.071, 1985.314 989.599, 1970.803 987.576 C 1950.090 984.688, 1935.802 979.960, 1927.153 973.130 C 1925.144 971.543, 1919.675 967.970, 1915 965.190 C 1910.325 962.409, 1905.233 958.934, 1903.685 957.466 C 1902.136 955.998, 1900.751 954.956, 1900.607 955.149 C 1900.046 955.900, 1894.876 970.580, 1894.693 971.941 C 1894.567 972.885, 1896.228 973.853, 1899.500 974.743 C 1933.675 984.042, 1962.188 996.292, 1985 1011.476 C 1994.308 1017.671, 1997.365 1020.608, 2018 1043.181 L 2027.500 1053.573 2027.756 975.259 L 2028.012 896.946 2030.259 896.091 C 2031.495 895.622, 2060.405 895.359, 2094.503 895.507 C 2162.254 895.802, 2163.421 895.890, 2180.047 901.958 C 2199.405 909.023, 2211.023 921.282, 2216.573 940.500 C 2218.067 945.673, 2218.365 952.629, 2218.735 990.992 C 2219.191 1038.204, 2218.562 1049.635, 2214.892 1060.766 C 2208.885 1078.987, 2192.113 1092.450, 2168.268 1098.190 C 2159.992 1100.183, 2155.998 1100.335, 2097.061 1100.900 L 2034.621 1101.500 2031.061 1111.841 C 2028.786 1118.446, 2026.306 1123.593, 2024.194 1126.091 L 2020.887 1130 2333.827 1130 L 2646.767 1130 2647.370 1127.750 C 2648.423 1123.818, 2648.087 872.360, 2647.025 869.565 L 2646.050 867 2303.525 867 C 2115.136 867, 1961 867.260, 1961 867.578 M 2281.477 896.943 C 2259.259 900.408, 2240.237 912.612, 2232.476 928.380 C 2225.867 941.808, 2225.557 944.900, 2225.527 997.500 C 2225.503 1039.337, 2225.701 1045.434, 2227.329 1053 C 2232.092 1075.132, 2247.118 1090.115, 2271.691 1097.237 C 2279.238 1099.424, 2280.878 1099.500, 2320.500 1099.500 C 2365.935 1099.500, 2366.819 1099.399, 2381.500 1092.562 C 2394.872 1086.334, 2403.643 1078.039, 2409.152 1066.412 C 2414.514 1055.096, 2415.118 1049.852, 2415.709 1009.461 C 2416.267 971.303, 2415.265 948.277, 2412.616 938.368 C 2410.341 929.861, 2405.174 921.392, 2398.383 915.040 C 2390.461 907.629, 2382.015 902.888, 2370.500 899.387 L 2361.500 896.652 2324 896.405 C 2303.375 896.270, 2284.239 896.512, 2281.477 896.943 M 2477.300 897.061 C 2469.216 898.113, 2455.455 902.894, 2448.301 907.135 C 2435.746 914.578, 2426.951 926.735, 2423.393 941.565 C 2420.016 955.639, 2419.981 1038.559, 2423.346 1054.617 C 2428.181 1077.694, 2448.347 1094.874, 2475.339 1098.912 C 2486.023 1100.510, 2524.650 1101.162, 2542 1100.037 C 2568.587 1098.314, 2581.381 1093.562, 2594.586 1080.506 C 2606.402 1068.823, 2609.582 1059.727, 2611.019 1033.500 C 2612.165 1012.578, 2612.248 984.939, 2611.170 983.240 C 2610.541 982.250, 2599.820 982.036, 2560.935 982.240 L 2511.500 982.500 2511.227 1000.927 C 2511.047 1013.034, 2511.320 1019.722, 2512.023 1020.427 C 2512.657 1021.062, 2519.913 1021.704, 2529.797 1022 L 2546.500 1022.500 2546.324 1028.781 C 2546.103 1036.677, 2543.197 1043.047, 2538.732 1045.426 C 2535.911 1046.929, 2532.875 1047.107, 2514.828 1046.824 C 2494.374 1046.503, 2494.128 1046.474, 2491.449 1044 C 2486.115 1039.073, 2486 1038.100, 2486.002 997.782 C 2486.004 946.903, 2484.337 949.663, 2515.340 949.195 C 2535.068 948.897, 2535.622 948.944, 2539.020 951.215 C 2540.934 952.494, 2543.264 955.106, 2544.197 957.020 C 2547.261 963.305, 2545.620 963.009, 2576.789 962.900 C 2592.580 962.845, 2606.625 962.479, 2608 962.085 C 2610.420 961.393, 2610.492 961.120, 2610.257 953.608 C 2609.819 939.587, 2605.182 927.002, 2597.063 917.799 C 2587.969 907.490, 2571.268 899.320, 2554.678 897.064 C 2545.717 895.845, 2486.655 895.843, 2477.300 897.061 M 1044.128 899.033 C 1022.785 901.955, 1002.021 914.997, 994.826 930 C 989.774 940.534, 988.999 945.681, 987.826 976.500 C 986.706 1005.910, 987.777 1044.633, 990.039 1056.500 C 993.584 1075.100, 1011.705 1092.604, 1033.500 1098.480 C 1042.670 1100.952, 1083.994 1102.411, 1106.580 1101.061 C 1127.351 1099.818, 1133.282 1098.555, 1144.782 1092.926 C 1156.608 1087.137, 1164.960 1079.064, 1169.960 1068.589 C 1172.084 1064.140, 1174.361 1058.250, 1175.019 1055.500 C 1175.760 1052.401, 1176.402 1037.858, 1176.708 1017.241 L 1177.201 983.981 1127.850 984.241 L 1078.500 984.500 1078.227 1002.927 C 1078.018 1016.999, 1078.254 1021.544, 1079.227 1022.161 C 1079.927 1022.606, 1087.782 1022.976, 1096.683 1022.985 C 1115.398 1023.002, 1114.751 1022.608, 1113.079 1032.991 C 1111.855 1040.592, 1109.493 1044.804, 1104.965 1047.465 C 1101.800 1049.324, 1099.812 1049.500, 1082 1049.500 C 1059.794 1049.500, 1058.106 1049.026, 1053.844 1041.590 L 1051.500 1037.500 1051.500 999.500 C 1051.500 963.298, 1051.595 961.339, 1053.500 958.105 C 1057.786 950.828, 1058.828 950.533, 1081.320 950.215 C 1104.969 949.882, 1106.601 950.342, 1111.052 958.593 L 1113.698 963.500 1144.386 963.500 C 1170.071 963.500, 1175.220 963.264, 1175.967 962.055 C 1178.050 958.682, 1174.227 938.797, 1169.764 929.792 C 1163.405 916.959, 1148.007 905.654, 1130.287 900.807 C 1123.115 898.846, 1119.657 898.657, 1086.500 898.419 C 1066.700 898.277, 1047.632 898.553, 1044.128 899.033 M 1187.682 899.651 C 1187.307 900.026, 1187 944.590, 1187 998.682 L 1187 1097.031 1215.250 1096.766 L 1243.500 1096.500 1244 1059 L 1244.500 1021.500 1276 1021.500 L 1307.500 1021.500 1308 1059 L 1308.500 1096.500 1336.750 1096.766 L 1365 1097.031 1365 998 L 1365 898.969 1336.750 899.234 L 1308.500 899.500 1308 936.500 L 1307.500 973.500 1276 973.500 L 1244.500 973.500 1244 936.500 L 1243.500 899.500 1215.932 899.235 C 1200.770 899.088, 1188.057 899.276, 1187.682 899.651 M 1377.448 900.275 C 1377.179 900.976, 1377.081 911.213, 1377.229 923.025 L 1377.500 944.500 1403 945 L 1428.500 945.500 1428.756 1021.250 L 1429.013 1097 1457.961 1097 L 1486.909 1097 1487.593 1093.357 C 1487.969 1091.354, 1487.944 1058.108, 1487.539 1019.477 C 1486.996 967.754, 1487.100 948.681, 1487.936 947.120 C 1489.045 945.047, 1489.623 945, 1514.035 945 L 1539 945 1539 922 L 1539 899 1458.469 899 C 1394.133 899, 1377.839 899.256, 1377.448 900.275 M 1548.329 900.586 C 1547.988 901.474, 1548.149 904.125, 1548.688 906.478 C 1549.226 908.830, 1563.579 937.022, 1580.583 969.127 L 1611.500 1027.500 1611.726 1061 C 1611.850 1079.425, 1611.963 1095.069, 1611.976 1095.765 C 1611.995 1096.762, 1618.201 1096.974, 1641.250 1096.765 L 1670.500 1096.500 1670.816 1094.280 C 1671.066 1092.517, 1669.931 1091.301, 1665.316 1088.388 C 1656.832 1083.032, 1651.173 1078.235, 1649.484 1074.970 C 1647.565 1071.258, 1647.592 1065.690, 1649.548 1061.907 C 1651.198 1058.716, 1658.462 1053.624, 1666.250 1050.201 L 1671 1048.112 1671 1037.907 L 1671 1027.701 1681.916 1007.101 L 1692.831 986.500 1692.286 975 C 1691.986 968.675, 1691.358 962.758, 1690.889 961.850 C 1690.420 960.943, 1687.940 959.486, 1685.377 958.613 C 1674.845 955.024, 1662.820 942.452, 1660.065 932.149 C 1659.555 930.245, 1657.772 933.356, 1650.895 948.143 C 1645.982 958.706, 1641.782 966.500, 1641.003 966.500 C 1639.745 966.500, 1622.492 930.778, 1613.067 908.660 L 1609.164 899.500 1579.056 899.235 C 1552.109 898.998, 1548.883 899.140, 1548.329 900.586 M 1674.229 899.662 C 1672.908 900.201, 1670.732 903.946, 1669.596 907.635 C 1668.958 909.705, 1669.257 909.783, 1679.277 910.154 C 1688.530 910.496, 1690.318 910.882, 1696.305 913.830 C 1700.697 915.991, 1704.436 918.795, 1707.189 921.991 L 1711.382 926.860 1715.727 924.314 C 1718.117 922.914, 1721.968 921.227, 1724.286 920.567 C 1727.944 919.524, 1728.868 918.649, 1731.290 913.933 C 1733.374 909.875, 1734.007 907.361, 1733.790 904 L 1733.500 899.500 1704.500 899.321 C 1688.550 899.223, 1674.928 899.376, 1674.229 899.662 M 385 998.500 L 385 1097 414.500 1097 L 444 1097 444 1035.500 C 444 980.480, 444.383 970.243, 446.253 975.250 C 446.510 975.938, 456.308 1003.050, 468.026 1035.500 C 479.745 1067.950, 489.763 1095.063, 490.289 1095.750 C 491.030 1096.719, 501.997 1097, 539.122 1097 L 587 1097 587 998.485 L 587 899.970 557.750 900.235 L 528.500 900.500 528.243 963.750 C 528.101 998.538, 527.651 1027, 527.243 1026.999 C 526.834 1026.998, 516.856 1000.336, 505.069 967.749 C 493.282 935.162, 482.836 906.587, 481.855 904.250 L 480.071 900 432.536 900 L 385 900 385 998.500 M 652.977 902.250 C 651.727 905.116, 597.223 1089.633, 596.380 1093.852 L 595.750 1097 625.816 1097 C 646.284 1097, 656.095 1096.655, 656.550 1095.919 C 656.918 1095.324, 658.965 1088.041, 661.101 1079.733 C 663.236 1071.425, 665.550 1064.269, 666.242 1063.829 C 666.934 1063.390, 681.311 1063.024, 698.191 1063.015 C 721.324 1063.004, 729.068 1063.301, 729.638 1064.223 C 730.054 1064.896, 732.221 1072.434, 734.454 1080.973 L 738.514 1096.500 768.757 1096.765 C 797.085 1097.013, 799.001 1096.918, 799.013 1095.265 C 799.031 1092.843, 742.906 902.809, 741.712 901.250 C 740.972 900.284, 730.898 900, 697.356 900 L 653.957 900 652.977 902.250 M 798 973.397 C 798 1055.112, 798.105 1056.670, 804.477 1069.620 C 811.285 1083.456, 827.759 1095.463, 845.713 1099.674 C 852.438 1101.251, 858.070 1101.500, 887 1101.500 C 918.910 1101.500, 920.874 1101.392, 928.377 1099.218 C 952.508 1092.228, 967.014 1078.805, 972.565 1058.328 C 975.004 1049.329, 975.708 1026.749, 975.600 961 L 975.500 900.500 946 900.500 L 916.500 900.500 916 971 C 915.513 1039.637, 915.446 1041.592, 913.465 1044.965 C 909.461 1051.780, 906.837 1052.500, 886 1052.500 C 865.163 1052.500, 862.539 1051.780, 858.535 1044.965 C 856.554 1041.592, 856.487 1039.637, 856 971 L 855.500 900.500 826.750 900.235 L 798 899.969 798 973.397 M 1672.223 921.557 C 1669.342 923.574, 1669.383 927.138, 1672.358 933.500 C 1674.847 938.822, 1682.286 946.398, 1686.652 948.058 C 1693.097 950.508, 1702 943.321, 1702 935.668 C 1702 932.058, 1701.426 930.848, 1698.250 927.758 C 1696.188 925.751, 1692.475 923.195, 1690 922.077 C 1684.480 919.583, 1675.418 919.318, 1672.223 921.557 M 1730.205 929.462 C 1715.966 932.698, 1708.890 941.189, 1703.862 961.072 C 1699.663 977.680, 1702.535 987.431, 1715.500 1000.580 C 1723.805 1009.002, 1733.357 1014.881, 1746.149 1019.442 C 1767.658 1027.111, 1792.499 1027.964, 1805.066 1021.466 C 1809.363 1019.244, 1814.905 1012.058, 1816.523 1006.612 C 1821.426 990.099, 1812.511 964.177, 1796.845 949.402 C 1789.962 942.910, 1774.360 933.198, 1767.107 930.890 C 1758.466 928.140, 1739.288 927.398, 1730.205 929.462 M 2091.241 998.250 L 2091.500 1047.500 2117.500 1047.500 C 2147.031 1047.500, 2148.368 1047.194, 2152.402 1039.500 C 2154.424 1035.645, 2154.500 1034.143, 2154.500 998 C 2154.500 956.566, 2154.589 957.198, 2147.959 951.619 L 2144.847 949 2117.914 949 L 2090.981 949 2091.241 998.250 M 2297.192 951.024 C 2295.282 952.189, 2293.072 954.829, 2291.964 957.271 C 2290.187 961.184, 2290.043 964.149, 2290.028 997 C 2290.018 1018.406, 2290.421 1033.976, 2291.044 1036.219 C 2292.590 1041.787, 2296.290 1045.584, 2301.429 1046.878 C 2307.199 1048.331, 2333.801 1048.331, 2339.571 1046.878 C 2344.802 1045.561, 2348.457 1041.729, 2350.020 1035.925 C 2350.718 1033.332, 2350.989 1019.298, 2350.796 995.721 C 2350.467 955.515, 2350.392 955.039, 2343.701 950.960 C 2340.808 949.195, 2338.576 949.007, 2320.500 949.007 C 2302.204 949.007, 2300.218 949.179, 2297.192 951.024 M 696.622 954.802 C 695.379 956.814, 677.116 1022.379, 677.587 1023.141 C 677.879 1023.613, 687.091 1024, 698.059 1024 C 713.251 1024, 718 1023.705, 718 1022.761 C 718 1020.159, 698.678 954, 697.918 954 C 697.478 954, 696.895 954.361, 696.622 954.802 M 1818 957.654 C 1818 958.522, 1820.371 961.794, 1823.269 964.924 C 1826.167 968.054, 1830.104 973.523, 1832.019 977.077 L 1835.500 983.538 1841.587 979.438 L 1847.673 975.339 1842.587 971.786 C 1829.975 962.977, 1818 956.094, 1818 957.654 M 1864.016 982.135 C 1851.777 983.953, 1841.319 990.652, 1836.696 999.636 C 1830.022 1012.604, 1822.539 1058.969, 1821.545 1093.518 C 1820.508 1129.546, 1823.691 1142.728, 1836.524 1155.561 C 1843.764 1162.801, 1855.089 1169.448, 1863 1171.101 C 1870.249 1172.615, 1879.124 1171.016, 1888.549 1166.497 C 1898.804 1161.581, 1904.793 1154.820, 1911.461 1140.628 C 1916.185 1130.574, 1917.186 1129.126, 1920.150 1128.055 C 1921.992 1127.389, 1932.275 1126.425, 1943 1125.912 C 1969.416 1124.650, 1981.163 1122.141, 1992 1115.448 C 2003.148 1108.563, 2010.381 1094.337, 2012.567 1075 C 2013.979 1062.510, 2006.519 1044.765, 1994.566 1032.181 C 1986.273 1023.449, 1977.176 1017.281, 1959 1008.066 C 1942.313 999.605, 1932.133 995.386, 1915.883 990.196 C 1892.914 982.860, 1876.405 980.294, 1864.016 982.135 M 1734.926 1032.960 C 1723.985 1033.864, 1718.868 1035.778, 1709.474 1042.481 C 1701.727 1048.010, 1699.611 1051.341, 1697.584 1061.208 C 1695.604 1070.845, 1695.604 1073.674, 1697.584 1081.356 C 1703.682 1105.007, 1718.686 1114.303, 1753 1115.690 C 1776.653 1116.646, 1790.861 1112.641, 1801.774 1101.944 C 1810.208 1093.677, 1812.508 1088.952, 1812.458 1080 C 1812.359 1062.345, 1808.236 1054.507, 1794.500 1045.865 C 1777.112 1034.925, 1758.899 1030.980, 1734.926 1032.960 M 1816.500 1041 C 1814.850 1041.420, 1810.463 1041.817, 1806.750 1041.882 C 1803.037 1041.947, 1800 1042.245, 1800 1042.544 C 1800 1042.843, 1802.417 1045.447, 1805.371 1048.332 C 1808.326 1051.216, 1811.710 1055.471, 1812.892 1057.788 C 1814.074 1060.105, 1815.482 1062, 1816.020 1062 C 1816.559 1062, 1817.338 1062.017, 1817.750 1062.037 C 1818.162 1062.058, 1819.204 1057.108, 1820.064 1051.037 C 1821.120 1043.588, 1821.283 1040.038, 1820.564 1040.118 C 1819.979 1040.183, 1818.150 1040.580, 1816.500 1041 M 1667.104 1062.013 C 1661.401 1064.064, 1658 1066.502, 1658 1068.539 C 1658 1072.338, 1676.981 1084, 1683.165 1084 C 1686.894 1084, 1689 1080.659, 1689 1074.745 C 1689 1068.910, 1687.016 1063.825, 1683.883 1061.631 C 1680.771 1059.451, 1673.785 1059.610, 1667.104 1062.013" stroke="none" fill="#231f20" fill-rule="evenodd"/><path d="M 718.168 879.750 C 911.585 879.889, 1228.385 879.889, 1422.168 879.750 C 1615.950 879.611, 1457.700 879.497, 1070.500 879.497 C 683.300 879.497, 524.750 879.611, 718.168 879.750 M 364.483 999 C 364.483 1062.525, 364.603 1088.513, 364.750 1056.750 C 364.896 1024.988, 364.896 973.013, 364.750 941.250 C 364.603 909.488, 364.483 935.475, 364.483 999 M 2041.250 895.746 C 2046.612 895.925, 2055.387 895.925, 2060.750 895.746 C 2066.113 895.566, 2061.725 895.419, 2051 895.419 C 2040.275 895.419, 2035.888 895.566, 2041.250 895.746 M 409.819 899.749 C 422.644 899.908, 443.344 899.907, 455.819 899.749 C 468.293 899.590, 457.800 899.461, 432.500 899.461 C 407.200 899.461, 396.993 899.591, 409.819 899.749 M 543.811 899.748 C 551.681 899.917, 564.281 899.917, 571.811 899.747 C 579.340 899.578, 572.900 899.439, 557.500 899.440 C 542.100 899.440, 535.940 899.579, 543.811 899.748 M 676.750 899.749 C 688.438 899.909, 707.563 899.909, 719.250 899.749 C 730.938 899.589, 721.375 899.458, 698 899.458 C 674.625 899.458, 665.063 899.589, 676.750 899.749 M 813.250 899.748 C 820.813 899.917, 833.188 899.917, 840.750 899.748 C 848.313 899.578, 842.125 899.439, 827 899.439 C 811.875 899.439, 805.688 899.578, 813.250 899.748 M 931.750 899.748 C 939.587 899.917, 952.413 899.917, 960.250 899.748 C 968.087 899.579, 961.675 899.441, 946 899.441 C 930.325 899.441, 923.913 899.579, 931.750 899.748 M 1539.426 922.500 C 1539.427 934.600, 1539.571 939.413, 1539.747 933.195 C 1539.923 926.977, 1539.922 917.077, 1539.746 911.195 C 1539.569 905.313, 1539.425 910.400, 1539.426 922.500 M 1365.480 998.500 C 1365.480 1051.850, 1365.602 1073.528, 1365.750 1046.674 C 1365.898 1019.820, 1365.898 976.170, 1365.750 949.674 C 1365.602 923.178, 1365.480 945.150, 1365.480 998.500 M 587.480 998.500 C 587.480 1051.300, 587.602 1072.753, 587.750 1046.174 C 587.898 1019.595, 587.898 976.395, 587.750 950.174 C 587.601 923.953, 587.480 945.700, 587.480 998.500 M 1487.448 981 C 1487.448 999.425, 1487.583 1006.962, 1487.748 997.750 C 1487.913 988.538, 1487.913 973.462, 1487.748 964.250 C 1487.583 955.038, 1487.448 962.575, 1487.448 981 M 2104.308 948.748 C 2111.353 948.920, 2122.603 948.919, 2129.308 948.747 C 2136.014 948.574, 2130.250 948.433, 2116.500 948.434 C 2102.750 948.434, 2097.264 948.576, 2104.308 948.748 M 352.450 994.500 C 352.451 1013.750, 352.585 1021.483, 352.749 1011.685 C 352.913 1001.888, 352.912 986.138, 352.748 976.685 C 352.584 967.233, 352.450 975.250, 352.450 994.500 M 2562.250 962.748 C 2570.363 962.916, 2583.637 962.916, 2591.750 962.748 C 2599.863 962.580, 2593.225 962.442, 2577 962.442 C 2560.775 962.442, 2554.137 962.580, 2562.250 962.748 M 2289.446 998.500 C 2289.447 1016.100, 2289.583 1023.159, 2289.749 1014.187 C 2289.914 1005.215, 2289.914 990.815, 2289.748 982.187 C 2289.581 973.559, 2289.446 980.900, 2289.446 998.500 M 2351.445 998 C 2351.445 1015.325, 2351.582 1022.413, 2351.748 1013.750 C 2351.915 1005.087, 2351.915 990.913, 2351.748 982.250 C 2351.582 973.587, 2351.445 980.675, 2351.445 998 M 2485.431 996.500 C 2485.432 1009.700, 2485.574 1014.962, 2485.747 1008.193 C 2485.921 1001.424, 2485.920 990.624, 2485.746 984.193 C 2485.572 977.762, 2485.431 983.300, 2485.431 996.500 M 2611.420 1003.500 C 2611.419 1014.500, 2611.565 1019.136, 2611.745 1013.803 C 2611.924 1008.470, 2611.925 999.470, 2611.746 993.803 C 2611.568 988.136, 2611.421 992.500, 2611.420 1003.500 M 1177.415 1004 C 1177.415 1014.175, 1177.564 1018.337, 1177.745 1013.250 C 1177.927 1008.163, 1177.927 999.837, 1177.745 994.750 C 1177.564 989.663, 1177.415 993.825, 1177.415 1004 M 687.750 1023.746 C 693.388 1023.924, 702.612 1023.924, 708.250 1023.746 C 713.888 1023.568, 709.275 1023.422, 698 1023.422 C 686.725 1023.422, 682.112 1023.568, 687.750 1023.746 M 1611.444 1060 C 1611.444 1076.775, 1611.581 1083.638, 1611.748 1075.250 C 1611.915 1066.862, 1611.915 1053.138, 1611.748 1044.750 C 1611.581 1036.362, 1611.444 1043.225, 1611.444 1060 M 2506.750 1047.745 C 2511.838 1047.927, 2520.162 1047.927, 2525.250 1047.745 C 2530.338 1047.564, 2526.175 1047.415, 2516 1047.415 C 2505.825 1047.415, 2501.662 1047.564, 2506.750 1047.745 M 1641.500 1097 L 1612.500 1097.546 1641.191 1097.773 C 1659.488 1097.918, 1670.106 1097.638, 1670.500 1097 C 1670.840 1096.450, 1670.979 1096.102, 1670.809 1096.227 C 1670.639 1096.352, 1657.450 1096.700, 1641.500 1097 M 399.750 1097.748 C 407.587 1097.917, 420.412 1097.917, 428.250 1097.748 C 436.087 1097.579, 429.675 1097.441, 414 1097.441 C 398.325 1097.441, 391.912 1097.579, 399.750 1097.748 M 515.250 1097.749 C 528.313 1097.907, 549.688 1097.907, 562.750 1097.749 C 575.813 1097.591, 565.125 1097.462, 539 1097.462 C 512.875 1097.462, 502.188 1097.591, 515.250 1097.749 M 612.311 1097.748 C 620.457 1097.916, 633.507 1097.916, 641.311 1097.747 C 649.115 1097.579, 642.450 1097.441, 626.500 1097.441 C 610.550 1097.442, 604.165 1097.580, 612.311 1097.748 M 754.311 1097.748 C 762.457 1097.916, 775.507 1097.916, 783.311 1097.747 C 791.115 1097.579, 784.450 1097.441, 768.500 1097.441 C 752.550 1097.442, 746.165 1097.580, 754.311 1097.748 M 1202.310 1097.748 C 1209.905 1097.918, 1222.055 1097.918, 1229.310 1097.747 C 1236.564 1097.576, 1230.350 1097.437, 1215.500 1097.438 C 1200.650 1097.438, 1194.714 1097.578, 1202.310 1097.748 M 1323.250 1097.748 C 1330.813 1097.917, 1343.188 1097.917, 1350.750 1097.748 C 1358.313 1097.578, 1352.125 1097.439, 1337 1097.439 C 1321.875 1097.439, 1315.688 1097.578, 1323.250 1097.748 M 1444.811 1097.748 C 1452.681 1097.917, 1465.281 1097.917, 1472.811 1097.747 C 1480.340 1097.578, 1473.900 1097.439, 1458.500 1097.440 C 1443.100 1097.440, 1436.940 1097.579, 1444.811 1097.748 M 698.332 1130.750 C 887.990 1130.889, 1198.040 1130.889, 1387.332 1130.750 C 1576.625 1130.611, 1421.450 1130.497, 1042.500 1130.497 C 663.550 1130.497, 508.675 1130.611, 698.332 1130.750 M 2177.331 1130.750 C 2263.588 1130.891, 2404.438 1130.891, 2490.331 1130.750 C 2576.224 1130.609, 2505.650 1130.494, 2333.500 1130.494 C 2161.350 1130.494, 2091.074 1130.609, 2177.331 1130.750" stroke="none" fill="#47191f" fill-rule="evenodd"/><path d="M 2304.750 896.748 C 2313.137 896.915, 2326.863 896.915, 2335.250 896.748 C 2343.637 896.581, 2336.775 896.444, 2320 896.444 C 2303.225 896.444, 2296.363 896.581, 2304.750 896.748 M 2500.750 896.748 C 2509.137 896.915, 2522.863 896.915, 2531.250 896.748 C 2539.637 896.581, 2532.775 896.444, 2516 896.444 C 2499.225 896.444, 2492.363 896.581, 2500.750 896.748 M 1067.807 897.747 C 1074.576 897.921, 1085.376 897.920, 1091.807 897.746 C 1098.238 897.572, 1092.700 897.431, 1079.500 897.431 C 1066.300 897.432, 1061.038 897.574, 1067.807 897.747 M 1187.200 899.200 C 1186.280 900.120, 1186.057 923.250, 1186.243 998.450 L 1186.485 1096.500 1186.993 998 L 1187.500 899.500 1215.655 899.500 C 1231.140 899.500, 1243.601 899.163, 1243.346 898.750 C 1242.519 897.414, 1188.554 897.846, 1187.200 899.200 M 1308.663 898.735 C 1308.403 899.156, 1320.936 899.374, 1336.516 899.220 C 1361.383 898.975, 1364.900 899.130, 1365.319 900.490 C 1365.669 901.624, 1365.753 901.565, 1365.635 900.270 C 1365.485 898.629, 1363.414 898.481, 1337.305 898.235 C 1321.813 898.089, 1308.924 898.314, 1308.663 898.735 M 1417.750 898.750 C 1439.888 898.900, 1476.113 898.900, 1498.250 898.750 C 1520.388 898.600, 1502.275 898.477, 1458 898.477 C 1413.725 898.477, 1395.612 898.600, 1417.750 898.750 M 1558.500 898.708 C 1586.193 899.415, 1609.771 899.434, 1609.347 898.750 C 1609.091 898.337, 1595.071 898.096, 1578.191 898.214 C 1561.311 898.331, 1552.450 898.554, 1558.500 898.708 M 1690.750 898.748 C 1698.588 898.917, 1711.412 898.917, 1719.250 898.748 C 1727.088 898.579, 1720.675 898.441, 1705 898.441 C 1689.325 898.441, 1682.912 898.579, 1690.750 898.748 M 2028.476 977 C 2028.476 1020.725, 2028.599 1038.612, 2028.750 1016.750 C 2028.900 994.887, 2028.900 959.112, 2028.750 937.250 C 2028.599 915.387, 2028.476 933.275, 2028.476 977 M 797.460 900.250 C 797.197 900.938, 797.102 934.125, 797.248 974 L 797.513 1046.500 797.757 973.333 C 797.948 915.919, 798.269 900.058, 799.250 899.662 C 800.229 899.267, 800.222 899.141, 799.219 899.079 C 798.514 899.036, 797.722 899.563, 797.460 900.250 M 1376.221 921.550 C 1376.060 937.623, 1376.325 943.925, 1377.200 944.800 C 1378.081 945.681, 1384.931 945.941, 1402.950 945.776 L 1427.500 945.553 1402.500 945.026 L 1377.500 944.500 1376.971 922 L 1376.442 899.500 1376.221 921.550 M 384.237 998.691 C 384.107 1052.696, 384.337 1097.091, 384.750 1097.346 C 385.429 1097.766, 385.423 1029.240, 384.736 936 C 384.592 916.475, 384.367 944.686, 384.237 998.691 M 526.765 963.500 C 526.619 997.875, 526.837 1026, 527.250 1026 C 527.663 1026, 528 997.875, 528 963.500 C 528 929.125, 527.782 901, 527.515 901 C 527.248 901, 526.911 929.125, 526.765 963.500 M 1514.532 944.750 C 1500.800 944.907, 1489.234 945.365, 1488.831 945.768 C 1488.427 946.171, 1499.431 946.372, 1513.283 946.216 C 1527.729 946.052, 1538.881 945.519, 1539.434 944.966 C 1539.965 944.435, 1540.197 944.104, 1539.950 944.232 C 1539.703 944.359, 1528.264 944.592, 1514.532 944.750 M 1428.475 1021.500 C 1428.475 1062.750, 1428.598 1079.771, 1428.750 1059.324 C 1428.901 1038.877, 1428.901 1005.127, 1428.750 984.324 C 1428.599 963.521, 1428.475 980.250, 1428.475 1021.500 M 2090.667 948.667 C 2089.741 949.592, 2089.823 1046.773, 2090.750 1047.345 C 2091.162 1047.600, 2091.500 1025.352, 2091.500 997.905 C 2091.500 970.457, 2091.463 948, 2091.417 948 C 2091.371 948, 2091.033 948.300, 2090.667 948.667 M 2507.302 948.746 C 2512.693 948.926, 2521.243 948.925, 2526.302 948.744 C 2531.361 948.563, 2526.950 948.416, 2516.500 948.417 C 2506.050 948.418, 2501.911 948.566, 2507.302 948.746 M 1073.302 950.746 C 1078.693 950.926, 1087.243 950.925, 1092.302 950.744 C 1097.361 950.563, 1092.950 950.416, 1082.500 950.417 C 1072.050 950.418, 1067.911 950.566, 1073.302 950.746 M 694.445 962.250 C 693.377 966.237, 692.459 969.950, 692.405 970.500 C 692.351 971.050, 692.010 972.175, 691.647 973 C 691.284 973.825, 687.906 985.300, 684.140 998.500 L 677.293 1022.500 697.292 1022.771 C 708.291 1022.920, 717.442 1022.891, 717.627 1022.706 C 717.970 1022.363, 704.555 974.729, 703.346 972 C 702.981 971.175, 702.749 970.178, 702.830 969.785 C 702.911 969.391, 702.462 967.816, 701.833 966.285 C 701.203 964.753, 700.633 963.050, 700.566 962.500 C 700.098 958.687, 698.647 955, 697.613 955 C 696.934 955, 695.518 958.241, 694.445 962.250 M 2225.448 997.500 C 2225.447 1015.650, 2225.582 1023.216, 2225.748 1014.314 C 2225.913 1005.411, 2225.914 990.561, 2225.749 981.314 C 2225.583 972.066, 2225.448 979.350, 2225.448 997.500 M 2415.440 995.500 C 2415.440 1010.900, 2415.579 1017.060, 2415.748 1009.189 C 2415.917 1001.319, 2415.917 988.719, 2415.747 981.189 C 2415.578 973.660, 2415.439 980.100, 2415.440 995.500 M 1260.750 973.748 C 1269.138 973.915, 1282.862 973.915, 1291.250 973.748 C 1299.638 973.581, 1292.775 973.444, 1276 973.444 C 1259.225 973.444, 1252.362 973.581, 1260.750 973.748 M 444.459 975.250 C 444.196 975.938, 444.098 1003.500, 444.241 1036.500 L 444.501 1096.500 445 1035.250 C 445.275 1001.562, 445.373 974, 445.219 974 C 445.064 974, 444.722 974.563, 444.459 975.250 M 2530 982.722 C 2574.918 983.419, 2610.768 983.432, 2610.346 982.750 C 2610.091 982.337, 2587.971 982.101, 2561.191 982.225 C 2534.411 982.349, 2520.375 982.573, 2530 982.722 M 1102.681 983.749 C 1115.980 983.906, 1138.030 983.907, 1151.681 983.749 C 1165.331 983.592, 1154.450 983.463, 1127.500 983.463 C 1100.550 983.463, 1089.381 983.592, 1102.681 983.749 M 2511.413 1001.500 C 2511.414 1011.400, 2511.564 1015.315, 2511.746 1010.199 C 2511.928 1005.084, 2511.927 996.984, 2511.744 992.199 C 2511.561 987.415, 2511.412 991.600, 2511.413 1001.500 M 1077.196 1003.191 C 1077.088 1013.471, 1077.338 1022.092, 1077.750 1022.348 C 1078.162 1022.604, 1078.383 1017.118, 1078.240 1010.157 C 1077.759 986.803, 1077.393 984.360, 1077.196 1003.191 M 1816.500 1040.999 C 1814.850 1041.449, 1810.506 1042.115, 1806.847 1042.478 L 1800.195 1043.138 1804.721 1047.311 C 1807.210 1049.605, 1810.761 1053.849, 1812.611 1056.741 C 1817.628 1064.583, 1817.946 1064.305, 1819.963 1050.308 C 1821.197 1041.748, 1821.247 1039.970, 1820.250 1040.090 C 1819.838 1040.140, 1818.150 1040.549, 1816.500 1040.999 M 2074.750 1100.749 C 2086.988 1100.908, 2107.012 1100.908, 2119.250 1100.749 C 2131.488 1100.590, 2121.475 1100.460, 2097 1100.460 C 2072.525 1100.460, 2062.512 1100.590, 2074.750 1100.749 M 875.807 1102.747 C 882.576 1102.921, 893.376 1102.920, 899.807 1102.746 C 906.238 1102.572, 900.700 1102.431, 887.500 1102.431 C 874.300 1102.432, 869.038 1102.574, 875.807 1102.747" stroke="none" fill="#fbfbfb" fill-rule="evenodd"/></svg>